<?xml version="1.0" standalone="no"?>
  <!DOCTYPE svg PUBLIC "-//W3C//DTD SVG 1.1//EN" "http://www.w3.org/Graphics/SVG/1.1/DTD/svg11.dtd" >
  <svg>
  <metadata>
  Created by font-carrier
  </metadata>
  <defs>
  <font id="PancettaPro-Regular" horiz-adv-x="1107" vert-adv-y="1107" >
    <font-face
      
      font-family="Pancetta Pro"
      
      font-weight="400"
      
      font-stretch="normal"
      
      units-per-em="1000"
      
      ascent="750"
      
      descent="-250"
      
    />
      <missing-glyph />

      

      
      <glyph glyph-name="uni21" unicode="&#x21;" d="M146 105L146 3Q125-2 104-2L61 3L61 105Q82 109 104 109L146 105M145 697L145 211Q124 206 104 206L62 211L62 697Q82 702 104 702L145 697Z"  horiz-adv-x="207" vert-adv-y="1000"  />

      
      <glyph glyph-name="uni22" unicode="&#x22;" d="M121 697L116 495Q103 490 90 490L64 495L59 697Q73 702 90 702L121 697M245 697L239 495Q226 490 213 490L188 495L182 697Q197 702 213 702L245 697Z"  horiz-adv-x="303" vert-adv-y="1000"  />

      
      <glyph glyph-name="uni23" unicode="&#x23;" d="M475 182L407 182L392 3Q375-2 358-2L325 3L340 182L167 182L152 3Q135-2 118-2L85 3L100 182L41 182Q37 193 37 210L41 238L105 238L124 462L65 462Q60 473 60 490L65 518L129 518L145 697Q161 702 178 702L212 697L196 518L369 518L385 697Q401 702 418 702L452 697L436 518L499 518Q503 507 503 490L499 462L431 462L412 238L475 238Q479 227 479 210L475 182M191 462L172 238L345 238L364 462L191 462Z"  horiz-adv-x="540" vert-adv-y="1000"  />

      
      <glyph glyph-name="uni24" unicode="&#x24;" d="M139 537L139 490Q139 452 177 428Q215 404 269 390.50Q323 377 377 360Q431 343 469 305.50Q507 268 507 210L507 163Q507 85 460.50 43.50Q414 2 310-3L310-97Q294-102 277-102L244-97L244-3Q137 2 92.50 43.50Q48 85 48 163L48 177Q69 182 90 182L132 177L132 163Q132 105 164.50 79.50Q197 54 277 54Q356 54 388.50 79.50Q421 105 421 163L421 210Q421 245 393.50 269Q366 293 325.50 304.50Q285 316 237 331Q189 346 148.50 361.50Q108 377 80.50 410Q53 443 53 490L53 537Q53 614 97.50 655.50Q142 697 244 703L244 797Q260 802 277 802L310 797L310 703Q413 698 456 656.50Q499 615 499 537L499 523Q478 518 457 518L415 523L415 537Q415 594 384 620Q353 646 278 646Q202 646 170.50 619.50Q139 593 139 537Z"  horiz-adv-x="560" vert-adv-y="1000"  />

      
      <glyph glyph-name="uni25" unicode="&#x25;" d="M351 106L351 134Q351 243 476 243Q540 243 570.50 214Q601 185 601 134L601 106Q601-3 476-3Q351-3 351 106M40 566L40 594Q40 703 165 703Q290 703 290 594L290 566Q290 515 259.50 486Q229 457 165 457Q101 457 70.50 486Q40 515 40 566M582 697L133 3Q114-2 97-2L60 3L509 697Q526 702 545 702L582 697M93 594L93 566Q93 505 165 505Q237 505 237 566L237 594Q237 625 220 640Q203 655 165 655Q127 655 110 640Q93 625 93 594M404 134L404 106Q404 75 421 60Q438 45 476 45Q514 45 530.50 60Q547 75 547 106L547 134Q547 165 530.50 179.50Q514 194 476 194Q438 194 421 179.50Q404 165 404 134Z"  horiz-adv-x="641" vert-adv-y="1000"  />

      
      <glyph glyph-name="uni26" unicode="&#x26;" d="M637 445L496 445L496 138Q496 92 515 71Q534 50 582 50Q600 50 637 60Q641 49 641 35L637 10Q582-5 559-5Q491-5 460 29Q458 29 442.50 22.50Q427 16 409 10.50Q391 5 358 0Q325-5 289-5Q46-5 46 168L46 216Q46 330 166 360Q59 390 59 499L59 536Q59 619 111.50 662Q164 705 280 705Q398 705 447 664.50Q496 624 496 542L496 500L637 500Q642 489 642 472L637 445M283 386L331 386Q336 375 336 358L331 330L283 330Q199 330 164 302.50Q129 275 129 216L129 168Q129 106 165 78Q201 50 289 50Q363 50 431 79Q422 102 422 138L422 542Q422 599 390.50 624.50Q359 650 280 650Q205 650 173.50 622.50Q142 595 142 536L142 499Q142 440 174 413Q206 386 283 386Z"  horiz-adv-x="700" vert-adv-y="1000"  />

      
      <glyph glyph-name="uni27" unicode="&#x27;" d="M121 697L116 495Q103 490 90 490L64 495L59 697Q73 702 90 702L121 697Z"  horiz-adv-x="180" vert-adv-y="1000"  />

      
      <glyph glyph-name="uni28" unicode="&#x28;" d="M245-95Q249-105 249-122L245-150Q149-150 105.50-109.50Q62-69 62 9L62 593Q62 671 105.50 711.50Q149 752 245 752Q249 740 249 724L245 697Q187 697 163 672Q139 647 139 593L139 9Q139-45 163-70Q187-95 245-95Z"  horiz-adv-x="284" vert-adv-y="1000"  />

      
      <glyph glyph-name="uni29" unicode="&#x29;" d="M39 697Q34 707 34 724L39 752Q134 752 177.50 711.50Q221 671 221 593L221 9Q221-69 177.50-109.50Q134-150 39-150Q34-138 34-122L39-95Q97-95 121-70Q145-45 145 9L145 593Q145 647 121 672Q97 697 39 697Z"  horiz-adv-x="284" vert-adv-y="1000"  />

      
      <glyph glyph-name="uni2a" unicode="&#x2a;" d="M58 589L210 535L206 697Q221 702 238 702L269 697L265 536L418 589Q427 577 432 561L437 530L283 483L381 355Q371 342 358 333L330 318L238 451L146 318Q131 323 118 332L95 355L192 483L39 529Q38 545 44 561L58 589Z"  horiz-adv-x="476" vert-adv-y="1000"  />

      
      <glyph glyph-name="uni2b" unicode="&#x2b;" d="M234 463L234 328L369 328Q373 317 373 300L369 272L234 272L234 137Q223 133 206 133L177 137L177 272L43 272Q38 283 38 300L43 328L177 328L177 463Q189 468 206 468L234 463Z"  horiz-adv-x="412" vert-adv-y="1000"  />

      
      <glyph glyph-name="uni2c" unicode="&#x2c;" d="M141 105Q141 39 122.50-13Q104-65 86-84L68-103Q55-108 42-108L17-103Q22-95 29.50-80Q37-65 50-11.50Q63 42 63 105Q81 109 102 109L141 105Z"  horiz-adv-x="203" vert-adv-y="1000"  />

      
      <glyph glyph-name="uni2d" unicode="&#x2d;" d="M249 257L43 257Q38 267 38 284L43 312L249 312Q253 301 253 284L249 257Z"  horiz-adv-x="292" vert-adv-y="1000"  />

      
      <glyph glyph-name="uni2e" unicode="&#x2e;" d="M142 105L142 3Q122-2 102-2L61 3L61 105Q81 109 102 109L142 105Z"  horiz-adv-x="203" vert-adv-y="1000"  />

      
      <glyph glyph-name="uni2f" unicode="&#x2f;" d="M355 747L116-97Q96-102 76-102L36-97L275 747Q294 752 315 752L355 747Z"  horiz-adv-x="390" vert-adv-y="1000"  />

      
      <glyph glyph-name="uni30" unicode="&#x30;" d="M60 154L60 546Q60 624 113.50 664.50Q167 705 284 705Q401 705 454.50 664.50Q508 624 508 546L508 154Q508 76 454.50 35.50Q401-5 284-5Q167-5 113.50 35.50Q60 76 60 154M143 546L143 154Q143 99 175 74.50Q207 50 284 50Q361 50 393 74.50Q425 99 425 154L425 546Q425 601 393 625.50Q361 650 284 650Q207 650 175 625.50Q143 601 143 546Z"  horiz-adv-x="569" vert-adv-y="1000"  />

      
      <glyph glyph-name="uni31" unicode="&#x31;" d="M240 702L240 3Q219-2 199-2L157 3L157 636L33 641Q29 653 29 669L33 696Q114 702 240 702Z"  horiz-adv-x="344" vert-adv-y="1000"  />

      
      <glyph glyph-name="uni32" unicode="&#x32;" d="M415 490L415 537Q415 596 382.50 623Q350 650 272 650Q195 650 164 623Q133 596 133 537L133 523Q113 518 92 518L52 523L52 537Q52 622 101.50 663.50Q151 705 272 705Q392 705 444 663Q496 621 496 537L496 490Q496 421 459 375.50Q422 330 370 306Q318 282 265.50 260Q213 238 176 199.50Q139 161 139 103L139 55L490 55Q495 44 495 28L490 0L259 0Q205 0 155 2Q105 4 82 6L59 7L59 103Q59 154 78.50 192.50Q98 231 129.50 254.50Q161 278 199 296.50Q237 315 275 332Q313 349 344.50 368Q376 387 395.50 418Q415 449 415 490Z"  horiz-adv-x="550" vert-adv-y="1000"  />

      
      <glyph glyph-name="uni33" unicode="&#x33;" d="M64 643Q59 654 59 671L64 700L474 700Q478 689 478 672L474 645L270 402Q338 402 384 389Q430 376 453.50 351.50Q477 327 486.50 298.50Q496 270 496 231L496 168Q496-5 257-5Q198-5 147.50 5.50Q97 16 76 26L56 37Q51 49 51 66L56 94Q56 92 78 82Q100 72 150 61Q200 50 256 50Q342 50 377.50 78Q413 106 413 168L413 231Q413 293 376 320.50Q339 348 250 348L187 348Q182 359 182 377L187 405L383 643L64 643Z"  horiz-adv-x="545" vert-adv-y="1000"  />

      
      <glyph glyph-name="uni34" unicode="&#x34;" d="M437 497L437 224L505 224Q510 212 510 195L505 167L439 167L439 3Q419-2 399-2L358 3L358 167L48 167Q43 178 43 194L231 697Q247 702 271 702L313 697L135 224L359 224L359 497Q378 502 398 502L437 497Z"  horiz-adv-x="538" vert-adv-y="1000"  />

      
      <glyph glyph-name="uni35" unicode="&#x35;" d="M170 645L154 412L256 412Q385 412 435 367.50Q485 323 485 238L485 168Q485-5 254-5Q195-5 144.50 5.50Q94 16 74 26L53 37Q48 49 48 66L53 94Q53 92 75 82Q97 72 147 61Q197 50 253 50Q334 50 368 78Q402 106 402 168L402 238Q402 298 369 326.50Q336 355 256 355L81 355Q77 366 77 383L99 693Q179 700 300 700L440 700Q445 689 445 672L440 645L170 645Z"  horiz-adv-x="537" vert-adv-y="1000"  />

      
      <glyph glyph-name="uni36" unicode="&#x36;" d="M143 394Q151 399 165.50 407Q180 415 229.50 428.50Q279 442 334 442Q423 442 462.50 402Q502 362 502 283L502 154Q502 76 449.50 35.50Q397-5 281-5Q165-5 112.50 35.50Q60 76 60 154L60 525Q60 612 115 658Q170 704 294 704Q342 704 385 698Q428 692 447 686L466 679Q470 668 470 652L466 624Q398 649 290 649Q209 649 176 618.50Q143 588 143 525L143 394M143 338L143 154Q143 99 174 74.50Q205 50 281 50Q357 50 388 74.50Q419 99 419 154L419 283Q419 337 394.50 362Q370 387 309 387Q256 387 214.50 374.50Q173 362 158 350L143 338Z"  horiz-adv-x="562" vert-adv-y="1000"  />

      
      <glyph glyph-name="uni37" unicode="&#x37;" d="M478 672L224 2Q208-2 183-2L138 2L387 643L50 643Q45 654 45 671L50 700L474 700Q478 689 478 672Z"  horiz-adv-x="524" vert-adv-y="1000"  />

      
      <glyph glyph-name="uni38" unicode="&#x38;" d="M74 490L74 546Q74 625 123.50 665Q173 705 284 705Q395 705 445 664.50Q495 624 495 546L495 490Q495 391 405 361Q510 330 510 228L510 154Q510 76 456.50 35.50Q403-5 284-5Q165-5 112 35Q59 75 59 154L59 228Q59 330 162 361Q74 391 74 490M141 228L141 154Q141 99 173.50 74.50Q206 50 284 50Q362 50 394.50 74.50Q427 99 427 154L427 228Q427 282 394.50 306.50Q362 331 284 331Q206 331 173.50 306.50Q141 282 141 228M156 546L156 490Q156 436 185 411Q214 386 284 386Q354 386 383 411Q412 436 412 490L412 546Q412 601 383 625.50Q354 650 284 650Q214 650 185 625Q156 600 156 546Z"  horiz-adv-x="568" vert-adv-y="1000"  />

      
      <glyph glyph-name="uni39" unicode="&#x39;" d="M419 174L419 319Q411 314 396.50 306Q382 298 333 284.50Q284 271 229 271Q139 271 99.50 310.50Q60 350 60 429L60 546Q60 624 112.50 664Q165 704 281 704Q397 704 449.50 664Q502 624 502 546L502 175Q502-5 267-5Q219-5 175.50 1.50Q132 8 112 14L92 20Q88 31 88 48Q88 53 88.50 57.50Q89 62 89.50 65Q90 68 90.50 70.50Q91 73 92 74L92 76Q92 75 113 69Q134 63 179 56.50Q224 50 272 50Q353 50 386 80.50Q419 111 419 174M419 375L419 546Q419 600 388 624.50Q357 649 281 649Q205 649 174 624.50Q143 600 143 546L143 429Q143 375 167.50 350.50Q192 326 254 326Q288 326 317 331Q346 336 364 343Q382 350 395 357.50Q408 365 414 370L419 375Z"  horiz-adv-x="562" vert-adv-y="1000"  />

      
      <glyph glyph-name="uni3a" unicode="&#x3a;" d="M142 105L142 3Q122-2 102-2L61 3L61 105Q81 109 102 109L142 105M142 497L142 395Q122 391 102 391L61 395L61 497Q81 502 102 502L142 497Z"  horiz-adv-x="203" vert-adv-y="1000"  />

      
      <glyph glyph-name="uni3b" unicode="&#x3b;" d="M142 497L142 395Q122 391 102 391L61 395L61 497Q81 502 102 502L142 497M141 105Q141 39 122.50-13Q104-65 86-84L68-103Q55-108 42-108L17-103Q22-95 29.50-80Q37-65 50-11.50Q63 42 63 105Q81 109 102 109L141 105Z"  horiz-adv-x="203" vert-adv-y="1000"  />

      
      <glyph glyph-name="uni3c" unicode="&#x3c;" d="M406 444L154 313L406 182Q411 164 411 148L406 115L38 313L406 512Q411 494 411 478L406 444Z"  horiz-adv-x="458" vert-adv-y="1000"  />

      
      <glyph glyph-name="uni3d" unicode="&#x3d;" d="M388 190L42 190Q38 201 38 218L42 245L388 245Q393 234 393 218L388 190M389 382L43 382Q38 392 38 409L43 437L389 437Q393 426 393 409L389 382Z"  horiz-adv-x="432" vert-adv-y="1000"  />

      
      <glyph glyph-name="uni3e" unicode="&#x3e;" d="M51 182L303 313L51 445Q46 463 46 478L51 512L419 313L51 115Q46 133 46 149L51 182Z"  horiz-adv-x="458" vert-adv-y="1000"  />

      
      <glyph glyph-name="uni3f" unicode="&#x3f;" d="M390 490L390 537Q390 596 361 623Q332 650 260 650Q189 650 161 623Q133 596 133 537L133 523Q113 518 92 518L52 523L52 537Q52 622 98.50 663.50Q145 705 260 705Q373 705 422.50 663Q472 621 472 537L472 490Q472 449 454.50 420.50Q437 392 411.50 376.50Q386 361 361 347Q336 333 318.50 311Q301 289 301 256L301 211Q280 206 260 206L219 211L219 256Q219 298 236.50 327Q254 356 279 371.50Q304 387 329.50 401Q355 415 372.50 436.50Q390 458 390 490M302 105L302 3Q281-2 260-2L217 3L217 105Q238 109 260 109L302 105Z"  horiz-adv-x="525" vert-adv-y="1000"  />

      
      <glyph glyph-name="uni40" unicode="&#x40;" d="M62 1L62 313Q62 408 134.50 456.50Q207 505 371 505Q504 505 562.50 461.50Q621 418 621 332L621 3Q601-2 580-2L539 3L539 43Q532 38 519 30Q506 22 461 8.50Q416-5 366-5Q293-5 261 29Q229 63 229 130L229 149Q229 209 271 242Q313 275 408 285L539 299L539 332Q539 394 501.50 422Q464 450 371 450Q245 450 195 417.50Q145 385 145 313L145 1Q145-84 191-117Q237-150 358-150Q428-150 491-139Q554-128 582.50-118Q611-108 611-106Q617-116 617-134Q617-142 615.50-149Q614-156 612-160L611-163Q601-168 582-175Q563-182 497.50-193.50Q432-205 359-205Q200-205 131-155Q62-105 62 1M539 246L422 232Q362 225 336.50 205Q311 185 311 149L311 130Q311 88 330 69Q349 50 396 50Q442 50 477.50 62Q513 74 526 86L539 99L539 246Z"  horiz-adv-x="684" vert-adv-y="1000"  />

      
      <glyph glyph-name="uni41" unicode="&#x41;" d="M23 3L242 697Q269 702 301 702L359 697L578 3Q557-2 537-2L493 3L435 187L166 187L108 3Q85-2 65-2L23 3M301 628L181 246L420 246L301 628Z"  horiz-adv-x="601" vert-adv-y="1000"  />

      
      <glyph glyph-name="uni42" unicode="&#x42;" d="M62 5L62 695Q155 704 287 704Q404 704 457 661.50Q510 619 510 536L510 499Q510 390 403 360Q523 330 523 216L523 168Q523 83 467 39.50Q411-4 287-4Q228-4 172-2Q116 0 89 2L62 5M149 330L149 54L287 54Q368 54 402.50 81.50Q437 109 437 168L437 216Q437 275 402.50 302.50Q368 330 287 330L149 330M149 645L149 388L287 388Q362 388 393 414.50Q424 441 424 499L424 536Q424 592 393 618.50Q362 645 287 645L149 645Z"  horiz-adv-x="573" vert-adv-y="1000"  />

      
      <glyph glyph-name="uni43" unicode="&#x43;" d="M60 163L60 537Q60 620 116 662.50Q172 705 298 705Q424 705 476.50 663Q529 621 529 537L529 523Q509 518 489 518L450 523L450 537Q450 594 416.50 620Q383 646 298 646Q214 646 180.50 620Q147 594 147 537L147 163Q147 106 182.50 80Q218 54 307 54Q365 54 416.50 65Q468 76 491 86Q514 96 514 98Q520 87 520 68Q520 60 518.50 52.50Q517 45 516 41L514 37Q506 32 490.50 25Q475 18 421.50 6.50Q368-5 307-5Q176-5 118 37.50Q60 80 60 163Z"  horiz-adv-x="582" vert-adv-y="1000"  />

      
      <glyph glyph-name="uni44" unicode="&#x44;" d="M62 695Q152 704 289 704Q417 704 475 662Q533 620 533 537L533 163Q533 80 475 38Q417-4 289-4Q228-4 171.50-2Q115 0 88 2L62 5L62 695M149 646L149 54L289 54Q374 54 410 80Q446 106 446 163L446 537Q446 594 410 620Q374 646 289 646L149 646Z"  horiz-adv-x="593" vert-adv-y="1000"  />

      
      <glyph glyph-name="uni45" unicode="&#x45;" d="M149 330L149 59L479 59Q484 47 484 29L479 0L263 0Q209 0 159 2Q109 4 86 6L62 7L62 693Q142 700 263 700L474 700Q479 688 479 670L474 641L149 641L149 389L441 389Q446 378 446 360L441 330L149 330Z"  horiz-adv-x="521" vert-adv-y="1000"  />

      
      <glyph glyph-name="uni46" unicode="&#x46;" d="M149 330L149 3Q127-2 106-2L62 3L62 693Q142 700 263 700L466 700Q471 688 471 670L466 641L149 641L149 389L433 389Q438 378 438 360L433 330L149 330Z"  horiz-adv-x="508" vert-adv-y="1000"  />

      
      <glyph glyph-name="uni47" unicode="&#x47;" d="M533 362L533 40Q523 35 503.50 27.50Q484 20 423 8Q362-4 300-4Q174-4 117 38Q60 80 60 163L60 537Q60 620 116.50 662.50Q173 705 300 705Q427 705 480 663Q533 621 533 537L533 523Q514 518 494 518L454 523L454 537Q454 594 419.50 620Q385 646 300 646Q215 646 181 620Q147 594 147 537L147 163Q147 106 182 80Q217 54 300 54Q342 54 379.50 61Q417 68 434 74L450 81L450 310L312 310Q307 322 307 340L312 369L357 369Q404 369 448 367.50Q492 366 512 364L533 362Z"  horiz-adv-x="595" vert-adv-y="1000"  />

      
      <glyph glyph-name="uni48" unicode="&#x48;" d="M553 697L553 3Q532-2 510-2L467 3L467 329L149 329L149 3Q127-2 106-2L62 3L62 697Q83 702 106 702L149 697L149 388L467 388L467 697Q487 702 510 702L553 697Z"  horiz-adv-x="615" vert-adv-y="1000"  />

      
      <glyph glyph-name="uni49" unicode="&#x49;" d="M39 59L114 59L114 641L39 641Q34 652 34 670L39 700L274 700Q279 688 279 670L274 641L200 641L200 59L274 59Q279 48 279 29L274 0L39 0Q34 12 34 29L39 59Z"  horiz-adv-x="313" vert-adv-y="1000"  />

      
      <glyph glyph-name="uni4a" unicode="&#x4a;" d="M408 697L408 163Q408 80 359.50 37.50Q311-5 202-5Q156-5 117 5.50Q78 16 62 26L46 37Q40 50 40 68Q40 76 41.50 83.50Q43 91 44 94L46 98Q46 96 63 86Q80 76 119 65Q158 54 202 54Q268 54 294.50 80Q321 106 321 163L321 697Q342 702 364 702L408 697Z"  horiz-adv-x="470" vert-adv-y="1000"  />

      
      <glyph glyph-name="uni4b" unicode="&#x4b;" d="M425 3L222 332L149 311L149 3Q127-2 106-2L62 3L62 697Q83 702 106 702L149 697L149 373L222 394L416 697Q439 702 462 702L507 697L297 363L517 3Q495-2 471-2L425 3Z"  horiz-adv-x="539" vert-adv-y="1000"  />

      
      <glyph glyph-name="uni4c" unicode="&#x4c;" d="M149 697L149 59L449 59Q454 47 454 29L449 0L263 0Q209 0 159 2Q109 4 86 6L62 7L62 697Q83 702 106 702L149 697Z"  horiz-adv-x="485" vert-adv-y="1000"  />

      
      <glyph glyph-name="uni4d" unicode="&#x4d;" d="M703 698L703 3Q683-2 662-2L621 3L621 571L421 117Q403 112 382 112L343 117L145 570L145 2Q124-3 104-3L62 2L62 697Q89 702 118 702L174 697L382 223L592 698Q618 703 647 703L703 698Z"  horiz-adv-x="766" vert-adv-y="1000"  />

      
      <glyph glyph-name="uni4e" unicode="&#x4e;" d="M62 3L62 697Q80 702 100 702L137 697L472 160L472 697Q492 702 513 702L554 697L554 3Q536-2 517-2L480 3L145 540L145 3Q125-2 104-2L62 3Z"  horiz-adv-x="617" vert-adv-y="1000"  />

      
      <glyph glyph-name="uni4f" unicode="&#x4f;" d="M60 163L60 537Q60 620 118 662.50Q176 705 304 705Q432 705 490 662.50Q548 620 548 537L548 163Q548 80 490 37.50Q432-5 304-5Q176-5 118 37.50Q60 80 60 163M147 537L147 163Q147 106 183 80Q219 54 304 54Q390 54 425.50 80Q461 106 461 163L461 537Q461 594 425.50 620Q390 646 304 646Q219 646 183 620Q147 594 147 537Z"  horiz-adv-x="608" vert-adv-y="1000"  />

      
      <glyph glyph-name="uni50" unicode="&#x50;" d="M62 695Q148 704 279 704Q400 704 455 662Q510 620 510 537L510 471Q510 388 455 345.50Q400 303 279 303L149 307L149 3Q127-2 106-2L62 3L62 695M149 646L149 362L279 362Q358 362 391 388Q424 414 424 471L424 537Q424 594 391 620Q358 646 279 646L149 646Z"  horiz-adv-x="568" vert-adv-y="1000"  />

      
      <glyph glyph-name="uni51" unicode="&#x51;" d="M419-172L332-4Q323-5 304-5Q176-5 118 37.50Q60 80 60 163L60 537Q60 620 118 662.50Q176 705 304 705Q432 705 490 662.50Q548 620 548 537L548 163Q548 33 405 3L507-172Q487-177 464-177L419-172M147 537L147 163Q147 106 183 80Q219 54 304 54Q390 54 425.50 80Q461 106 461 163L461 537Q461 594 425.50 620Q390 646 304 646Q219 646 183 620Q147 594 147 537Z"  horiz-adv-x="608" vert-adv-y="1000"  />

      
      <glyph glyph-name="uni52" unicode="&#x52;" d="M446 3L284 303L279 303L149 307L149 3Q127-2 106-2L62 3L62 695Q148 704 279 704Q400 704 455 662Q510 620 510 537L510 471Q510 337 368 310L536 3Q514-2 491-2L446 3M149 646L149 362L279 362Q358 362 391 388Q424 414 424 471L424 537Q424 594 391 620Q358 646 279 646L149 646Z"  horiz-adv-x="574" vert-adv-y="1000"  />

      
      <glyph glyph-name="uni53" unicode="&#x53;" d="M139 537L139 490Q139 452 177 428Q215 404 269 390.50Q323 377 377 360Q431 343 469 305.50Q507 268 507 210L507 163Q507 79 453.50 37Q400-5 277-5Q151-5 99.50 37Q48 79 48 163L48 177Q69 182 90 182L132 177L132 163Q132 105 164.50 79.50Q197 54 277 54Q356 54 388.50 79.50Q421 105 421 163L421 210Q421 245 393.50 269Q366 293 325.50 304.50Q285 316 237 331Q189 346 148.50 361.50Q108 377 80.50 410Q53 443 53 490L53 537Q53 621 105.50 663Q158 705 278 705Q400 705 449.50 663.50Q499 622 499 537L499 523Q478 518 457 518L415 523L415 537Q415 594 384 620Q353 646 278 646Q202 646 170.50 619.50Q139 593 139 537Z"  horiz-adv-x="560" vert-adv-y="1000"  />

      
      <glyph glyph-name="uni54" unicode="&#x54;" d="M514 641L320 641L320 3Q298-2 277-2L233 3L233 641L36 641Q31 652 31 670L36 700L514 700Q519 688 519 670L514 641Z"  horiz-adv-x="554" vert-adv-y="1000"  />

      
      <glyph glyph-name="uni55" unicode="&#x55;" d="M542 697L542 163Q542 80 485 37.50Q428-5 302-5Q177-5 119.50 37.50Q62 80 62 163L62 697Q83 702 106 702L149 697L149 163Q149 106 184 80Q219 54 302 54Q386 54 421 80Q456 106 456 163L456 697Q477 702 499 702L542 697Z"  horiz-adv-x="605" vert-adv-y="1000"  />

      
      <glyph glyph-name="uni56" unicode="&#x56;" d="M242 3L23 697Q44 702 64 702L108 697L301 74L493 697Q516 702 536 702L578 697L359 3Q332-2 301-2L242 3Z"  horiz-adv-x="601" vert-adv-y="1000"  />

      
      <glyph glyph-name="uni57" unicode="&#x57;" d="M618 3L470 611L323 3Q295-2 264-2L206 3L25 697Q47 702 67 702L111 697L267 82L418 697Q440 702 470 702L523 697L675 82L830 697Q852 702 873 702L915 697L736 3Q708-2 677-2L618 3Z"  horiz-adv-x="941" vert-adv-y="1000"  />

      
      <glyph glyph-name="uni58" unicode="&#x58;" d="M462 3L289 302L115 3Q90-2 68-2L22 3L231 355L28 697Q53 702 75 702L122 697L289 407L455 697Q480 702 503 702L549 697L347 355L556 3Q530-2 508-2L462 3Z"  horiz-adv-x="577" vert-adv-y="1000"  />

      
      <glyph glyph-name="uni59" unicode="&#x59;" d="M549 697L332 291L332 3Q310-2 289-2L246 3L246 290L28 697Q53 702 75 702L122 697L289 373L455 697Q480 702 503 702L549 697Z"  horiz-adv-x="577" vert-adv-y="1000"  />

      
      <glyph glyph-name="uni5a" unicode="&#x5a;" d="M500 641L145 61L501 61Q505 48 505 31L501 0L50 0Q45 11 45 29L50 59L405 639L51 639Q46 651 46 669L51 700L500 700Q505 688 505 670L500 641Z"  horiz-adv-x="551" vert-adv-y="1000"  />

      
      <glyph glyph-name="uni5b" unicode="&#x5b;" d="M62-151L62 752Q120 752 173.50 750.50Q227 749 252 748L276 746Q280 736 280 721L276 695Q222 690 139 690L139-89L276-94Q280-105 280-120L276-145Q192-151 62-151Z"  horiz-adv-x="318" vert-adv-y="1000"  />

      
      <glyph glyph-name="uni5c" unicode="&#x5c;" d="M275-97L36 747Q55 752 76 752L116 747L355-97Q336-102 315-102L275-97Z"  horiz-adv-x="390" vert-adv-y="1000"  />

      
      <glyph glyph-name="uni5d" unicode="&#x5d;" d="M256 752L256-151Q198-151 144.50-149.50Q91-148 66-146L42-145Q38-135 38-120L42-94Q96-89 179-89L179 690L42 695Q38 706 38 721L42 746Q126 752 256 752Z"  horiz-adv-x="318" vert-adv-y="1000"  />

      
      <glyph glyph-name="uni5e" unicode="&#x5e;" d="M220 704L404 520Q399 509 387 498Q382 493 376.50 488.50Q371 484 368 482L365 481L220 626L75 481Q64 486 53 497L36 520L220 704Z"  horiz-adv-x="441" vert-adv-y="1000"  />

      
      <glyph glyph-name="uni5f" unicode="&#x5f;" d="M500-105L0-105L0-50L500-50L500-105Z"  horiz-adv-x="500" vert-adv-y="1000"  />

      
      <glyph glyph-name="uni60" unicode="&#x60;" d="M141 571L12 697Q31 702 51 702L91 697L196 571Q183 566 168 566L141 571Z"  horiz-adv-x="207" vert-adv-y="1000"  />

      
      <glyph glyph-name="uni61" unicode="&#x61;" d="M371 3L371 43Q364 38 351 30Q338 22 293 8.50Q248-5 198-5Q125-5 92.50 29Q60 63 60 130L60 145Q60 206 102 239Q144 272 240 282L371 296L371 352Q371 403 345.50 426.50Q320 450 258 450Q197 450 172.50 427Q148 404 148 354L148 342Q129 337 109 337L69 342L69 354Q69 430 111.50 467.50Q154 505 258 505Q362 505 407.50 466.50Q453 428 453 352L453 3Q433-2 412-2L371 3M371 243L254 229Q193 222 168 202Q143 182 143 145L143 130Q143 88 162 69Q181 50 228 50Q274 50 309.50 62Q345 74 358 86L371 99L371 243Z"  horiz-adv-x="516" vert-adv-y="1000"  />

      
      <glyph glyph-name="uni62" unicode="&#x62;" d="M145 43L145 3Q125-2 104-2L62 3L62 697Q82 702 104 702L145 697L145 458Q146 460 150 464.50Q154 469 164.50 476.50Q175 484 190 490Q205 496 230.50 500.50Q256 505 286 505Q377 505 417.50 465Q458 425 458 346L458 154Q458 75 423.50 35Q389-5 311-5Q263-5 221.50 7Q180 19 162 31L145 43M375 154L375 346Q375 401 352.50 425.50Q330 450 272 450Q202 450 173.50 425.50Q145 401 145 346L145 99Q149 94 158 85.50Q167 77 203 63.50Q239 50 284 50Q335 50 355 74.50Q375 99 375 154Z"  horiz-adv-x="518" vert-adv-y="1000"  />

      
      <glyph glyph-name="uni63" unicode="&#x63;" d="M60 154L60 346Q60 425 106 465Q152 505 256 505Q359 505 402 465.50Q445 426 445 346L445 333Q427 328 407 328L370 333L370 346Q370 401 345 425.50Q320 450 256 450Q193 450 168 425.50Q143 401 143 346L143 154Q143 99 171 74.50Q199 50 270 50Q314 50 354 59Q394 68 412 76L430 85Q436 74 436 57Q436 50 434.50 43Q433 36 432 33L430 30Q376-5 270-5Q159-5 109.50 35Q60 75 60 154Z"  horiz-adv-x="497" vert-adv-y="1000"  />

      
      <glyph glyph-name="uni64" unicode="&#x64;" d="M373 3L373 43Q366 38 353.50 30Q341 22 298 8.50Q255-5 207-5Q129-5 94.50 35Q60 75 60 154L60 346Q60 425 100.50 465Q141 505 232 505Q338 505 373 458L373 697Q393 702 414 702L456 697L456 3Q436-2 414-2L373 3M143 346L143 154Q143 99 163 74.50Q183 50 234 50Q279 50 313.50 62Q348 74 360 86L373 99L373 346Q373 401 344.50 425.50Q316 450 246 450Q189 450 166 425.50Q143 401 143 346Z"  horiz-adv-x="518" vert-adv-y="1000"  />

      
      <glyph glyph-name="uni65" unicode="&#x65;" d="M60 154L60 346Q60 425 107 465Q154 505 261 505Q369 505 413.50 465.50Q458 426 458 346L458 232Q399 224 300 224L143 224L143 154Q143 99 172 74.50Q201 50 275 50Q322 50 364 59Q406 68 424 76L443 85Q449 74 449 57Q449 50 447.50 43Q446 36 444 33L443 30Q386-5 275-5Q161-5 110.50 35Q60 75 60 154M143 279L379 279L379 346Q379 401 353 425.50Q327 450 261 450Q195 450 169 425.50Q143 401 143 346L143 279Z"  horiz-adv-x="518" vert-adv-y="1000"  />

      
      <glyph glyph-name="uni66" unicode="&#x66;" d="M328 447L184 447L184 3Q164-2 142-2L101 3L101 447L49 447Q44 457 44 474L49 502L101 502L101 562Q101 633 134 669Q167 705 241 705Q288 705 328 694Q332 682 332 668L328 642Q299 650 268 650Q221 650 202.50 629.50Q184 609 184 562L184 502L328 502Q333 491 333 474L328 447Z"  horiz-adv-x="362" vert-adv-y="1000"  />

      
      <glyph glyph-name="uni67" unicode="&#x67;" d="M373-46L373 40Q369 34 359 25.50Q349 17 314 6Q279-5 232-5Q141-5 100.50 35Q60 75 60 154L60 346Q60 425 94.50 465Q129 505 207 505Q255 505 296.50 493Q338 481 356 469L373 457L373 497Q392 502 414 502L456 497L456-46Q456-125 405.50-165Q355-205 241-205Q197-205 157-199.50Q117-194 99-188L81-182Q76-170 76-154L81-126Q145-150 241-150Q315-150 344-125.50Q373-101 373-46M143 346L143 154Q143 99 166 74.50Q189 50 246 50Q316 50 344.50 74.50Q373 99 373 154L373 401Q369 406 360 414.50Q351 423 315 436.50Q279 450 234 450Q183 450 163 425.50Q143 401 143 346Z"  horiz-adv-x="518" vert-adv-y="1000"  />

      
      <glyph glyph-name="uni68" unicode="&#x68;" d="M145 697L145 457Q152 462 164.50 470Q177 478 221 491.50Q265 505 313 505Q391 505 426 465Q461 425 461 346L461 3Q441-2 419-2L378 3L378 346Q378 401 357.50 425.50Q337 450 286 450Q257 450 232 445Q207 440 192 433Q177 426 165.50 418.50Q154 411 150 406L145 401L145 3Q124-2 104-2L62 3L62 697Q82 702 104 702L145 697Z"  horiz-adv-x="521" vert-adv-y="1000"  />

      
      <glyph glyph-name="uni69" unicode="&#x69;" d="M145 497L145 3Q124-2 104-2L62 3L62 497Q82 502 104 502L145 497M145 697L145 592Q124 587 104 587L62 592L62 697Q82 702 104 702L145 697Z"  horiz-adv-x="207" vert-adv-y="1000"  />

      
      <glyph glyph-name="uni6a" unicode="&#x6a;" d="M75-69L75 497Q95 502 117 502L158 497L158-69Q158-137 128-171Q98-205 30-205Q-7-205-51-193Q-55-182-55-167L-51-142Q-22-150 3-150Q44-150 59.50-130.50Q75-111 75-69M158 697L158 592Q137 587 117 587L75 592L75 697Q95 702 117 702L158 697Z"  horiz-adv-x="220" vert-adv-y="1000"  />

      
      <glyph glyph-name="uni6b" unicode="&#x6b;" d="M349 3L200 233L145 214L145 3Q124-2 104-2L62 3L62 697Q82 702 104 702L145 697L145 272L200 291L340 497Q362 502 384 502L427 497L269 263L437 3Q416-2 393-2L349 3Z"  horiz-adv-x="459" vert-adv-y="1000"  />

      
      <glyph glyph-name="uni6c" unicode="&#x6c;" d="M192 50Q193 50 217 53Q221 42 221 28L217 4Q194-5 165-5Q62-5 62 107L62 697Q82 702 104 702L145 697L145 107Q145 77 155.50 63.50Q166 50 192 50Z"  horiz-adv-x="247" vert-adv-y="1000"  />

      
      <glyph glyph-name="uni6d" unicode="&#x6d;" d="M62 3L62 497Q82 502 104 502L145 497L145 457Q151 462 162.50 470Q174 478 214 491.50Q254 505 298 505Q390 505 417 450Q424 456 437.50 465Q451 474 495.50 489.50Q540 505 589 505Q663 505 695.50 467.50Q728 430 728 355L728 3Q708-2 686-2L645 3L645 355Q645 405 626.50 427.50Q608 450 562 450Q474 450 436 401L436 3Q416-2 395-2L354 3L354 355Q354 405 335.50 427.50Q317 450 270 450Q230 450 199 438Q168 426 156 414L145 401L145 3Q124-2 104-2L62 3Z"  horiz-adv-x="788" vert-adv-y="1000"  />

      
      <glyph glyph-name="uni6e" unicode="&#x6e;" d="M145 497L145 457Q152 462 164.50 470Q177 478 221 491.50Q265 505 314 505Q393 505 428.50 465Q464 425 464 346L464 3Q444-2 422-2L381 3L381 346Q381 401 360.50 425.50Q340 450 287 450Q258 450 233 445Q208 440 192.50 433Q177 426 165.50 418.50Q154 411 150 406L145 401L145 3Q124-2 104-2L62 3L62 497Q82 502 104 502L145 497Z"  horiz-adv-x="524" vert-adv-y="1000"  />

      
      <glyph glyph-name="uni6f" unicode="&#x6f;" d="M60 154L60 346Q60 424 108.50 464.50Q157 505 264 505Q371 505 419.50 464.50Q468 424 468 346L468 154Q468 76 419.50 35.50Q371-5 264-5Q157-5 108.50 35.50Q60 76 60 154M143 346L143 154Q143 99 170.50 74.50Q198 50 264 50Q330 50 357.50 74.50Q385 99 385 154L385 346Q385 401 357.50 425.50Q330 450 264 450Q198 450 170.50 425.50Q143 401 143 346Z"  horiz-adv-x="528" vert-adv-y="1000"  />

      
      <glyph glyph-name="uni70" unicode="&#x70;" d="M145 497L145 457Q152 462 164.50 470Q177 478 220 491.50Q263 505 311 505Q389 505 423.50 465Q458 425 458 346L458 154Q458 75 417.50 35Q377-5 286-5Q238-5 203 6Q168 17 158.50 25.50Q149 34 145 40L145-197Q125-202 104-202L62-197L62 497Q82 502 104 502L145 497M375 154L375 346Q375 401 355 425.50Q335 450 284 450Q239 450 204.50 438Q170 426 158 414L145 401L145 154Q145 99 173.50 74.50Q202 50 272 50Q330 50 352.50 74.50Q375 99 375 154Z"  horiz-adv-x="518" vert-adv-y="1000"  />

      
      <glyph glyph-name="uni71" unicode="&#x71;" d="M373 457L373 497Q392 502 414 502L456 497L456-197Q436-202 414-202L373-197L373 41Q357 25 348 20Q306-5 232-5Q141-5 100.50 35Q60 75 60 154L60 346Q60 425 94.50 465Q129 505 207 505Q255 505 296.50 493Q338 481 356 469L373 457M143 346L143 154Q143 99 166 74.50Q189 50 246 50Q316 50 344.50 74.50Q373 99 373 154L373 401Q369 406 360 414.50Q351 423 315 436.50Q279 450 234 450Q183 450 163 425.50Q143 401 143 346Z"  horiz-adv-x="518" vert-adv-y="1000"  />

      
      <glyph glyph-name="uni72" unicode="&#x72;" d="M145 497L145 437Q147 440 152 444.50Q157 449 173.50 460.50Q190 472 209 481Q228 490 259 497.50Q290 505 323 505Q327 493 327 476L323 448Q288 448 257 438.50Q226 429 206 415.50Q186 402 171.50 389Q157 376 151 366L145 357L145 3Q124-2 104-2L62 3L62 497Q82 502 104 502L145 497Z"  horiz-adv-x="363" vert-adv-y="1000"  />

      
      <glyph glyph-name="uni73" unicode="&#x73;" d="M139 366L139 346Q139 327 156 314Q173 301 191.50 295.50Q210 290 246 282Q279 276 299 271Q319 266 349.50 255.50Q380 245 397 232.50Q414 220 427.50 199.50Q441 179 441 153L441 133Q441 64 395.50 29Q350-6 246-6Q140-6 96 31.50Q52 69 52 145L52 151Q72 156 92 156L132 151L132 145Q132 96 157.50 73Q183 50 245 50Q308 50 333.50 70Q359 90 359 133L359 153Q359 182 330 197Q301 212 246 223Q206 230 181 237Q156 244 123 257.50Q90 271 73.50 293.50Q57 316 57 346L57 366Q57 435 101.50 470Q146 505 247 505Q350 505 391.50 467.50Q433 430 433 354L433 348Q413 343 392 343L352 348L352 354Q352 404 328.50 427Q305 450 247 450Q188 450 163.50 429.50Q139 409 139 366Z"  horiz-adv-x="497" vert-adv-y="1000"  />

      
      <glyph glyph-name="uni74" unicode="&#x74;" d="M318 445L177 445L177 138Q177 92 196 71Q215 50 263 50Q281 50 318 60Q322 49 322 35L318 10Q263-5 236-5Q161-5 128 31Q95 67 95 138L95 445L43 445Q38 456 38 472L43 500L99 500L107 597Q124 602 142 602L177 597L177 500L318 500Q323 489 323 472L318 445Z"  horiz-adv-x="381" vert-adv-y="1000"  />

      
      <glyph glyph-name="uni75" unicode="&#x75;" d="M378 3L378 43Q371 38 358.50 30Q346 22 302.50 8.50Q259-5 211-5Q132-5 97 35Q62 75 62 154L62 497Q82 502 104 502L145 497L145 154Q145 99 165.50 74.50Q186 50 237 50Q266 50 291 55Q316 60 331 67Q346 74 357.50 81.50Q369 89 374 94L378 99L378 497Q399 502 419 502L461 497L461 3Q441-2 419-2L378 3Z"  horiz-adv-x="521" vert-adv-y="1000"  />

      
      <glyph glyph-name="uni76" unicode="&#x76;" d="M196 3L23 497Q43 502 62 502L104 497L251 68L397 497Q418 502 438 502L478 497L305 3Q280-2 251-2L196 3Z"  horiz-adv-x="501" vert-adv-y="1000"  />

      
      <glyph glyph-name="uni77" unicode="&#x77;" d="M506 3L392 415L279 3Q254-2 224-2L170 3L25 497Q46 502 65 502L107 497L227 71L343 497Q364 502 392 502L441 497L558 71L678 497Q699 502 719 502L759 497L616 3Q590-2 561-2L506 3Z"  horiz-adv-x="784" vert-adv-y="1000"  />

      
      <glyph glyph-name="uni78" unicode="&#x78;" d="M379 3L244 206L108 3Q84-2 64-2L22 3L193 255L28 497Q50 502 71 502L115 497L244 303L372 497Q395 502 416 502L459 497L295 255L466 3Q443-2 422-2L379 3Z"  horiz-adv-x="487" vert-adv-y="1000"  />

      
      <glyph glyph-name="uni79" unicode="&#x79;" d="M209-71L235-1L209 3L31 497Q52 502 71 502L113 497L259 73L405 497Q427 502 447 502L487 497L283-69Q259-139 222-172Q185-205 122-205Q108-205 95-203Q82-201 76-199L70-197Q64-186 64-171Q64-164 65.50-157Q67-150 68-147L70-144Q88-150 120-150Q181-150 209-71Z"  horiz-adv-x="510" vert-adv-y="1000"  />

      
      <glyph glyph-name="uni7a" unicode="&#x7a;" d="M421 445L140 57L421 57Q425 45 425 29L421 0L50 0Q45 11 45 28L50 55L331 443L50 443Q45 454 45 471L50 500L421 500Q425 489 425 472L421 445Z"  horiz-adv-x="471" vert-adv-y="1000"  />

      
      <glyph glyph-name="uni7b" unicode="&#x7b;" d="M327 697Q269 697 245 672Q221 647 221 593L221 432Q221 334 154 301Q221 267 221 170L221 9Q221-45 245-70Q269-95 327-95Q332-105 332-122L327-150Q232-150 188.50-109.50Q145-69 145 9L145 170Q145 223 121 248.50Q97 274 39 274Q34 284 34 301L39 329Q97 329 121 354Q145 379 145 432L145 593Q145 671 188.50 711.50Q232 752 327 752Q332 741 332 724L327 697Z"  horiz-adv-x="366" vert-adv-y="1000"  />

      
      <glyph glyph-name="uni7c" unicode="&#x7c;" d="M129 747L129-97Q113-102 96-102L62-97L62 747Q79 752 96 752L129 747Z"  horiz-adv-x="192" vert-adv-y="1000"  />

      
      <glyph glyph-name="uni7d" unicode="&#x7d;" d="M39 697Q34 707 34 724L39 752Q134 752 177.50 711.50Q221 671 221 593L221 432Q221 379 245 354Q269 329 327 329Q332 317 332 301L327 274Q269 274 245 248.50Q221 223 221 170L221 9Q221-69 177.50-109.50Q134-150 39-150Q34-138 34-122L39-95Q97-95 121-70Q145-45 145 9L145 170Q145 267 212 301Q145 334 145 432L145 593Q145 647 121 672Q97 697 39 697Z"  horiz-adv-x="366" vert-adv-y="1000"  />

      
      <glyph glyph-name="uni7e" unicode="&#x7e;" d="M44 253L44 258Q44 311 64 337Q84 363 133 363Q171 363 197 347Q223 331 242.50 315Q262 299 283 299Q311 299 322.50 312Q334 325 334 353L334 358Q348 363 363 363L391 358L391 353Q391 298 372 273Q353 248 303 248Q265 248 238.50 264Q212 280 192.50 295.50Q173 311 153 311Q125 311 113 298.50Q101 286 101 258L101 253Q87 248 73 248L44 253Z"  horiz-adv-x="435" vert-adv-y="1000"  />

      
      <glyph glyph-name="unia1" unicode="&#xa1;" d="M61 395L61 497Q82 502 104 502L146 497L146 395Q125 391 104 391L61 395M62-197L62 289Q83 294 104 294L145 289L145-197Q125-202 104-202L62-197Z"  horiz-adv-x="207" vert-adv-y="1000"  />

      
      <glyph glyph-name="unia2" unicode="&#xa2;" d="M60 154L60 346Q60 418 98.50 457.50Q137 497 223 503L223 597Q239 602 256 602L290 597L290 503Q373 497 409 457.50Q445 418 445 346L445 333Q427 328 407 328L370 333L370 346Q370 401 345 425.50Q320 450 256 450Q193 450 168 425.50Q143 401 143 346L143 154Q143 99 171 74.50Q199 50 270 50Q314 50 354 59Q394 68 412 76L430 85Q436 74 436 57Q436 50 434.50 43Q433 36 432 33L430 30Q384 0 290-4L290-97Q273-102 256-102L223-97L223-2Q137 6 98.50 45Q60 84 60 154Z"  horiz-adv-x="497" vert-adv-y="1000"  />

      
      <glyph glyph-name="unia3" unicode="&#xa3;" d="M363 304L183 304L183 59L517 59Q522 48 522 29L517 0L41 0Q36 12 36 29L41 59L97 59L97 304L41 304Q36 314 36 331L41 359L97 359L97 537Q97 620 147.50 662.50Q198 705 313 705Q428 705 475 663Q522 621 522 537L522 523Q503 518 483 518L444 523L444 537Q444 594 415 620Q386 646 313 646Q241 646 212 620Q183 594 183 537L183 359L363 359Q367 348 367 331L363 304Z"  horiz-adv-x="582" vert-adv-y="1000"  />

      
      <glyph glyph-name="unia4" unicode="&#xa4;" d="M75 300L75 328Q75 366 91 391L28 455Q33 466 44 478L67 494L135 425Q162 441 204 441Q245 441 272 425L340 494Q352 489 363 478L379 455L316 391Q333 365 333 328L333 300Q333 266 318 242L379 182Q374 171 363 159L340 143L278 204Q250 187 204 187Q157 187 128 204L67 143Q56 147 45 159L28 182L88 242Q75 265 75 300M128 328L128 300Q128 267 146 251Q164 235 204 235Q244 235 261.50 251Q279 267 279 300L279 328Q279 362 262 377Q245 392 204 392Q163 392 145.50 376.50Q128 361 128 328Z"  horiz-adv-x="408" vert-adv-y="1000"  />

      
      <glyph glyph-name="unia5" unicode="&#xa5;" d="M466 115L332 115L332 3Q310-2 289-2L246 3L246 115L112 115Q107 126 107 143L112 170L246 170L246 252L112 252Q108 263 108 280L112 308L236 308L28 697Q53 702 75 702L122 697L289 373L455 697Q480 702 503 702L549 697L341 308L466 308Q471 297 471 280L466 252L332 252L332 170L466 170Q470 159 470 143L466 115Z"  horiz-adv-x="577" vert-adv-y="1000"  />

      
      <glyph glyph-name="unia6" unicode="&#xa6;" d="M129 747L129 378Q113 373 96 373L62 378L62 747Q79 752 96 752L129 747M129 272L129-97Q113-102 96-102L62-97L62 272Q79 277 96 277L129 272Z"  horiz-adv-x="192" vert-adv-y="1000"  />

      
      <glyph glyph-name="unia7" unicode="&#xa7;" d="M507 218Q507 131 446 93Q507 51 507-20L507-42Q507-124 453.50-164.50Q400-205 277-205Q151-205 99.50-164.50Q48-124 48-42L48-29Q68-24 88-24L128-29L128-42Q128-99 161.50-124.50Q195-150 277-150Q358-150 391.50-124.50Q425-99 425-42L425-20Q425 15 397.50 39Q370 63 328.50 74.50Q287 86 239 101Q191 116 149.50 131.50Q108 147 80.50 180Q53 213 53 260L53 282Q53 371 116 409Q53 450 53 520L53 542Q53 623 105.50 664Q158 705 278 705Q400 705 449.50 664.50Q499 624 499 542L499 529Q479 524 459 524L419 529L419 542Q419 598 387 624Q355 650 278 650Q200 650 167.50 624Q135 598 135 542L135 520Q135 482 173.50 458Q212 434 266.50 420.50Q321 407 375.50 390Q430 373 468.50 335.50Q507 298 507 240L507 218M425 240Q425 273 400 296Q375 319 346.50 328.50Q318 338 267 352.50Q216 367 191 376Q135 354 135 282L135 260Q135 234 150 216Q165 198 192 186Q219 174 247.50 166Q276 158 313.50 147.50Q351 137 376 127Q425 151 425 218L425 240Z"  horiz-adv-x="560" vert-adv-y="1000"  />

      
      <glyph glyph-name="unia8" unicode="&#xa8;" d="M132 697L132 598Q117 593 99 593L65 598L65 697Q80 702 99 702L132 697M342 697L342 598Q327 593 309 593L275 598L275 697Q290 702 309 702L342 697Z"  horiz-adv-x="408" vert-adv-y="1000"  />

      
      <glyph glyph-name="unia9" unicode="&#xa9;" d="M60 240L60 460Q60 581 142.50 643Q225 705 405 705Q585 705 667 643Q749 581 749 460L749 240Q749 119 667 57Q585-5 405-5Q225-5 142.50 57Q60 119 60 240M139 460L139 240Q139 141 199 95.50Q259 50 405 50Q551 50 611 95.50Q671 141 671 240L671 460Q671 559 611 604.50Q551 650 405 650Q259 650 199 604.50Q139 559 139 460M287 263L287 441Q287 485 315.50 507.50Q344 530 409 530Q473 530 499 508Q525 486 525 441L525 435Q513 432 501 432L476 435L476 441Q476 469 461 481.50Q446 494 409 494Q371 494 356 481.50Q341 469 341 441L341 263Q341 235 357 222.50Q373 210 414 210Q442 210 467.50 215.50Q493 221 505 226Q517 231 517 232Q520 225 520 214L517 195Q480 174 414 174Q346 174 316.50 196.50Q287 219 287 263Z"  horiz-adv-x="811" vert-adv-y="1000"  />

      
      <glyph glyph-name="uniaa" unicode="&#xaa;" d="M264 352L264 379Q222 346 146 346Q94 346 71.50 370Q49 394 49 442L49 453Q49 495 78.50 518Q108 541 175 549L264 559L264 596Q264 631 247.50 646.50Q231 662 189 662Q148 662 131.50 646.50Q115 631 115 597L115 589Q100 585 84 585L55 589L55 597Q55 651 84.50 677.50Q114 704 189 704Q262 704 294.50 677Q327 650 327 596L327 352Q311 348 295 348L264 352M264 518L186 509Q146 505 129 491Q112 477 112 453L112 442Q112 413 124.50 400.50Q137 388 169 388Q200 388 223.50 396Q247 404 256 412L264 421L264 518Z"  horiz-adv-x="377" vert-adv-y="1000"  />

      
      <glyph glyph-name="uniab" unicode="&#xab;" d="M38 270L221 454Q232 449 244 438L260 415L115 270L260 126Q255 114 244 103Q239 98 233.50 94Q228 90 224 88L221 87L38 270M211 270L394 454Q405 449 417 438L433 415L289 270L434 126Q429 114 417 103Q412 98 406.50 94Q401 90 398 88L395 87L211 270Z"  horiz-adv-x="472" vert-adv-y="1000"  />

      
      <glyph glyph-name="uniac" unicode="&#xac;" d="M294 226L294 313L43 313Q38 324 38 340L43 368L164 368Q218 368 268 366Q318 364 342 362L365 360L365 226Q347 221 329 221L294 226Z"  horiz-adv-x="402" vert-adv-y="1000"  />

      
      <glyph glyph-name="uniad" unicode="&#xad;" d="M249 257L43 257Q38 267 38 284L43 312L249 312Q253 301 253 284L249 257Z"  horiz-adv-x="292" vert-adv-y="1000"  />

      
      <glyph glyph-name="uniae" unicode="&#xae;" d="M60 240L60 460Q60 581 142.50 643Q225 705 405 705Q585 705 667 643Q749 581 749 460L749 240Q749 119 667 57Q585-5 405-5Q225-5 142.50 57Q60 119 60 240M139 460L139 240Q139 141 199 95.50Q259 50 405 50Q551 50 611 95.50Q671 141 671 240L671 460Q671 559 611 604.50Q551 650 405 650Q259 650 199 604.50Q139 559 139 460M484 176L407 323L406 323L349 324L349 176Q335 174 322 174L295 176L295 522Q339 527 406 527Q469 527 497 505Q525 483 525 439L525 410Q525 342 458 328L539 176Q526 174 512 174L484 176M349 492L349 358L406 358Q442 358 457 370Q472 382 472 410L472 439Q472 467 457 479.50Q442 492 406 492L349 492Z"  horiz-adv-x="811" vert-adv-y="1000"  />

      
      <glyph glyph-name="uniaf" unicode="&#xaf;" d="M230 601L-15 601Q-20 610-20 623L-15 645L230 645Q235 636 235 623L230 601Z"  horiz-adv-x="215" vert-adv-y="1000"  />

      
      <glyph glyph-name="unib0" unicode="&#xb0;" d="M57 588L57 608Q57 703 164 703Q271 703 271 608L271 588Q271 493 164 493Q57 493 57 588M101 608L101 588Q101 533 164 533Q228 533 228 588L228 608Q228 636 213 649Q198 662 164 662Q130 662 115.50 649Q101 636 101 608Z"  horiz-adv-x="310" vert-adv-y="1000"  />

      
      <glyph glyph-name="unib1" unicode="&#xb1;" d="M234 497L234 362L369 362Q373 351 373 334L369 307L234 307L234 171Q223 167 206 167L177 171L177 307L43 307Q38 317 38 334L43 362L177 362L177 497Q189 502 206 502L234 497M369 77L43 77Q38 87 38 103L43 130L369 130Q373 119 373 103L369 77Z"  horiz-adv-x="412" vert-adv-y="1000"  />

      
      <glyph glyph-name="unib2" unicode="&#xb2;" d="M212 593L212 614Q212 643 197.50 656.50Q183 670 148 670Q113 670 99 657Q85 644 85 614L85 608Q72 605 59 605L35 608L35 614Q35 659 60 681Q85 703 148 703Q209 703 236 680.50Q263 658 263 614L263 593Q263 559 245 536.50Q227 514 201 502Q175 490 149 479Q123 468 105 450.50Q87 433 87 406L87 384L259 384Q262 377 262 367L259 350L141 350L38 354L38 406Q38 440 56 463Q74 486 99.50 498Q125 510 150.50 521Q176 532 194 549.50Q212 567 212 593Z"  horiz-adv-x="298" vert-adv-y="1000"  />

      
      <glyph glyph-name="unib3" unicode="&#xb3;" d="M41 665Q38 672 38 683L41 700L248 700Q251 693 251 683L248 666L150 553Q213 553 236.50 530Q260 507 260 465L260 436Q260 347 136 347Q108 347 83 352.50Q58 358 48 363L37 368Q34 375 34 385Q34 389 35 393.50Q36 398 36 400L37 403Q37 401 48 396Q59 391 83.50 385.50Q108 380 135 380Q176 380 192.50 393.50Q209 407 209 436L209 465Q209 494 192.50 507Q176 520 135 520L99 520Q97 527 97 537L99 555L193 665L41 665Z"  horiz-adv-x="294" vert-adv-y="1000"  />

      
      <glyph glyph-name="unib4" unicode="&#xb4;" d="M196 697L66 571Q52 566 39 566L12 571L117 697Q135 702 156 702L196 697Z"  horiz-adv-x="207" vert-adv-y="1000"  />

      
      <glyph glyph-name="unib5" unicode="&#xb5;" d="M145 43L145-97Q125-102 104-102L62-97L62 497Q82 502 104 502L145 497L145 99Q149 94 158.50 85.50Q168 77 204.50 63.50Q241 50 286 50Q337 50 357.50 74.50Q378 99 378 154L378 497Q398 502 419 502L461 497L461 154Q461 75 426 35Q391-5 313-5Q265-5 223 7Q181 19 163 31L145 43Z"  horiz-adv-x="521" vert-adv-y="1000"  />

      
      <glyph glyph-name="unib6" unicode="&#xb6;" d="M623 645L570 645L570-97Q550-102 528-102L487-97L487 645L369 645L369-97Q349-102 328-102L287-97L287 303Q165 303 110 345Q55 387 55 471L55 533Q55 616 110 658Q165 700 287 700L623 700Q627 689 627 672L623 645Z"  horiz-adv-x="665" vert-adv-y="1000"  />

      
      <glyph glyph-name="unib7" unicode="&#xb7;" d="M142 333L142 232Q122 227 102 227L61 232L61 333Q81 338 102 338L142 333Z"  horiz-adv-x="203" vert-adv-y="1000"  />

      
      <glyph glyph-name="unib8" unicode="&#xb8;" d="M267 0L267-14Q267-29 280-37Q293-45 309-48.50Q325-52 338-63.50Q351-75 351-94L351-103Q351-138 329.50-154.50Q308-171 258-171Q206-171 186.50-154Q167-137 167-101L167-96Q179-94 190-94L214-96L214-101Q214-122 223-129.50Q232-137 258-137Q283-137 292.50-130Q302-123 302-103L302-94Q302-83 289-76.50Q276-70 260-66.50Q244-63 231-50Q218-37 218-14L218 0L267 0Z"  horiz-adv-x="497" vert-adv-y="1000"  />

      
      <glyph glyph-name="unib9" unicode="&#xb9;" d="M140 701L140 351Q127 349 114 349L89 351L89 661L26 664Q24 671 24 681L26 698Q71 701 140 701Z"  horiz-adv-x="201" vert-adv-y="1000"  />

      
      <glyph glyph-name="uniba" unicode="&#xba;" d="M49 458L49 592Q49 704 192 704Q337 704 337 592L337 458Q337 346 192 346Q49 346 49 458M112 592L112 458Q112 421 130 404.50Q148 388 192 388Q236 388 255 404.50Q274 421 274 458L274 592Q274 629 255 645.50Q236 662 192 662Q148 662 130 645.50Q112 629 112 592Z"  horiz-adv-x="385" vert-adv-y="1000"  />

      
      <glyph glyph-name="unibb" unicode="&#xbb;" d="M260 270L77 87Q66 91 54 103L38 126L182 270L38 415Q42 426 54 438L77 454L260 270M434 270L250 87Q239 91 228 103Q223 108 218.50 113.50Q214 119 212 122L211 126L356 270L211 415Q216 426 227 438L250 454L434 270Z"  horiz-adv-x="472" vert-adv-y="1000"  />

      
      <glyph glyph-name="unibc" unicode="&#xbc;" d="M566 697L117 3Q96-2 77-2L36 3L485 697Q504 702 525 702L566 697M140 701L140 351Q127 349 114 349L89 351L89 661L26 664Q24 671 24 681L26 698Q71 701 140 701M565 249L565 116L598 116Q600 109 600 99L598 81L567 81L567 1Q555-1 542-1L517 1L517 81L364 81Q361 88 361 98L451 349Q461 351 476 351L501 349L418 116L517 116L517 249Q529 251 542 251L565 249Z"  horiz-adv-x="636" vert-adv-y="1000"  />

      
      <glyph glyph-name="unibd" unicode="&#xbd;" d="M566 697L117 3Q96-2 77-2L36 3L485 697Q504 702 525 702L566 697M140 701L140 351Q127 349 114 349L89 351L89 661L26 664Q24 671 24 681L26 698Q71 701 140 701M580 243L580 264Q580 293 565.50 306.50Q551 320 516 320Q480 320 466 307Q452 294 452 264L452 258Q440 255 427 255L402 258L402 264Q402 309 427.50 331Q453 353 516 353Q577 353 603.50 330.50Q630 308 630 264L630 243Q630 209 612 186.50Q594 164 568 152Q542 140 516.50 129Q491 118 473 100.50Q455 83 455 56L455 34L627 34Q629 26 629 17L627 0L509 0L406 4L406 56Q406 90 424 113Q442 136 467.50 148Q493 160 518.50 171Q544 182 562 199.50Q580 217 580 243Z"  horiz-adv-x="655" vert-adv-y="1000"  />

      
      <glyph glyph-name="unibe" unicode="&#xbe;" d="M610 697L161 3Q140-2 121-2L80 3L529 697Q547 702 569 702L610 697M41 665Q38 672 38 683L41 700L248 700Q251 693 251 683L248 666L150 553Q213 553 236.50 530Q260 507 260 465L260 436Q260 347 136 347Q108 347 83 352.50Q58 358 48 363L37 368Q34 375 34 385Q34 389 35 393.50Q36 398 36 400L37 403Q37 401 48 396Q59 391 83.50 385.50Q108 380 135 380Q176 380 192.50 393.50Q209 407 209 436L209 465Q209 494 192.50 507Q176 520 135 520L99 520Q97 527 97 537L99 555L193 665L41 665M597 249L597 116L629 116Q632 109 632 99L629 81L599 81L599 1Q586-1 574-1L549 1L549 81L395 81Q393 88 393 98L483 349Q493 351 508 351L533 349L449 116L549 116L549 249Q560 251 573 251L597 249Z"  horiz-adv-x="655" vert-adv-y="1000"  />

      
      <glyph glyph-name="unibf" unicode="&#xbf;" d="M134 9L134-37Q134-96 163-123Q192-150 264-150Q335-150 363.50-123Q392-96 392-37L392-24Q411-19 432-19L472-24L472-37Q472-122 425.50-163.50Q379-205 264-205Q151-205 101.50-163Q52-121 52-37L52 9Q52 50 69.50 78.50Q87 107 112.50 122.50Q138 138 163 152Q188 166 205.50 188.50Q223 211 223 244L223 289Q244 294 265 294L306 289L306 244Q306 208 293.50 181Q281 154 261.50 140Q242 126 220 112Q198 98 178.50 87Q159 76 146.50 56Q134 36 134 9M222 395L222 497Q243 502 265 502L307 497L307 395Q286 390 265 390L222 395Z"  horiz-adv-x="525" vert-adv-y="1000"  />

      
      <glyph glyph-name="unic0" unicode="&#xc0;" d="M23 3L242 697Q269 702 301 702L359 697L578 3Q557-2 537-2L493 3L435 187L166 187L108 3Q85-2 65-2L23 3M301 628L181 246L420 246L301 628M314 753L184 879Q204 884 224 884L263 879L369 753Q356 748 341 748L314 753Z"  horiz-adv-x="601" vert-adv-y="1000"  />

      
      <glyph glyph-name="unic1" unicode="&#xc1;" d="M23 3L242 697Q269 702 301 702L359 697L578 3Q557-2 537-2L493 3L435 187L166 187L108 3Q85-2 65-2L23 3M301 628L181 246L420 246L301 628M416 879L286 753Q272 748 259 748L231 753L337 879Q355 884 376 884L416 879Z"  horiz-adv-x="601" vert-adv-y="1000"  />

      
      <glyph glyph-name="unic2" unicode="&#xc2;" d="M23 3L242 697Q269 702 301 702L359 697L578 3Q557-2 537-2L493 3L435 187L166 187L108 3Q85-2 65-2L23 3M301 628L181 246L420 246L301 628M384 753L300 837L216 753Q201 748 188 748L161 753L262 873Q280 878 300 878L338 873L439 753Q427 748 412 748L384 753Z"  horiz-adv-x="601" vert-adv-y="1000"  />

      
      <glyph glyph-name="unic3" unicode="&#xc3;" d="M23 3L242 697Q269 702 301 702L359 697L578 3Q557-2 537-2L493 3L435 187L166 187L108 3Q85-2 65-2L23 3M301 628L181 246L420 246L301 628M149 753L149 758Q149 803 166 824.50Q183 846 226 846Q259 846 282.50 832Q306 818 323 804Q340 790 358 790Q383 790 392.50 800.50Q402 811 402 836L402 841Q414 846 427 846L451 841L451 837Q451 791 434 769.50Q417 748 374 748Q348 748 327 757Q306 766 295 776Q284 786 270 795Q256 804 242 804Q217 804 207.50 793.50Q198 783 198 758L198 753Q186 748 173 748L149 753Z"  horiz-adv-x="601" vert-adv-y="1000"  />

      
      <glyph glyph-name="unic4" unicode="&#xc4;" d="M23 3L242 697Q269 702 301 702L359 697L578 3Q557-2 537-2L493 3L435 187L166 187L108 3Q85-2 65-2L23 3M301 628L181 246L420 246L301 628M228 852L228 753Q213 748 195 748L162 753L162 852Q176 857 195 857L228 852M438 852L438 753Q423 748 405 748L372 753L372 852Q386 857 405 857L438 852Z"  horiz-adv-x="601" vert-adv-y="1000"  />

      
      <glyph glyph-name="unic5" unicode="&#xc5;" d="M23 3L242 697Q269 702 301 702L359 697L578 3Q557-2 537-2L493 3L435 187L166 187L108 3Q85-2 65-2L23 3M301 628L181 246L420 246L301 628M217 812L217 828Q217 897 300 897Q383 897 383 828L383 812Q383 743 300 743Q217 743 217 812M255 828L255 812Q255 776 300 776Q345 776 345 812L345 828Q345 864 300 864Q255 864 255 828Z"  horiz-adv-x="601" vert-adv-y="1000"  />

      
      <glyph glyph-name="unic6" unicode="&#xc6;" d="M401 330L401 59L696 59Q700 47 700 29L696 0L515 0Q461 0 411 2Q361 4 338 6L315 7L315 187L166 187L108 3Q85-2 65-2L23 3L241 694Q352 700 515 700L691 700Q695 688 695 670L691 641L401 641L401 389L658 389Q662 378 662 360L658 330L401 330M305 641L180 246L315 246L315 641L305 641Z"  horiz-adv-x="738" vert-adv-y="1000"  />

      
      <glyph glyph-name="unic7" unicode="&#xc7;" d="M60 163L60 537Q60 620 116 662.50Q172 705 298 705Q424 705 476.50 663Q529 621 529 537L529 523Q509 518 489 518L450 523L450 537Q450 594 416.50 620Q383 646 298 646Q214 646 180.50 620Q147 594 147 537L147 163Q147 106 182.50 80Q218 54 307 54Q365 54 416.50 65Q468 76 491 86Q514 96 514 98Q520 87 520 68Q520 60 518.50 52.50Q517 45 516 41L514 37Q506 33 491.50 26Q477 19 426 7.50Q375-4 318-5L318-14Q318-29 331-37Q344-45 360-48.50Q376-52 389-63.50Q402-75 402-94L402-103Q402-138 380-154.50Q358-171 308-171Q256-171 236.50-154Q217-137 217-101L217-96Q229-94 241-94L264-96L264-101Q264-122 273-129.50Q282-137 308-137Q333-137 342.50-130Q352-123 352-103L352-94Q352-83 339-76.50Q326-70 310.50-66.50Q295-63 282-50Q269-37 269-14L269-4Q159 2 109.50 44Q60 86 60 163Z"  horiz-adv-x="582" vert-adv-y="1000"  />

      
      <glyph glyph-name="unic8" unicode="&#xc8;" d="M149 330L149 59L479 59Q484 47 484 29L479 0L263 0Q209 0 159 2Q109 4 86 6L62 7L62 693Q142 700 263 700L474 700Q479 688 479 670L474 641L149 641L149 389L441 389Q446 378 446 360L441 330L149 330M290 753L161 879Q181 884 201 884L240 879L345 753Q333 748 318 748L290 753Z"  horiz-adv-x="521" vert-adv-y="1000"  />

      
      <glyph glyph-name="unic9" unicode="&#xc9;" d="M149 330L149 59L479 59Q484 47 484 29L479 0L263 0Q209 0 159 2Q109 4 86 6L62 7L62 693Q142 700 263 700L474 700Q479 688 479 670L474 641L149 641L149 389L441 389Q446 378 446 360L441 330L149 330M386 879L257 753Q243 748 230 748L202 753L307 879Q325 884 346 884L386 879Z"  horiz-adv-x="521" vert-adv-y="1000"  />

      
      <glyph glyph-name="unica" unicode="&#xca;" d="M149 330L149 59L479 59Q484 47 484 29L479 0L263 0Q209 0 159 2Q109 4 86 6L62 7L62 693Q142 700 263 700L474 700Q479 688 479 670L474 641L149 641L149 389L441 389Q446 378 446 360L441 330L149 330M358 753L274 837L189 753Q175 748 162 748L134 753L236 873Q254 878 273 878L311 873L413 753Q401 748 386 748L358 753Z"  horiz-adv-x="521" vert-adv-y="1000"  />

      
      <glyph glyph-name="unicb" unicode="&#xcb;" d="M149 330L149 59L479 59Q484 47 484 29L479 0L263 0Q209 0 159 2Q109 4 86 6L62 7L62 693Q142 700 263 700L474 700Q479 688 479 670L474 641L149 641L149 389L441 389Q446 378 446 360L441 330L149 330M202 852L202 753Q187 748 169 748L135 753L135 852Q150 857 169 857L202 852M412 852L412 753Q397 748 379 748L345 753L345 852Q360 857 379 857L412 852Z"  horiz-adv-x="521" vert-adv-y="1000"  />

      
      <glyph glyph-name="unicc" unicode="&#xcc;" d="M39 59L114 59L114 641L39 641Q34 652 34 670L39 700L274 700Q279 688 279 670L274 641L200 641L200 59L274 59Q279 48 279 29L274 0L39 0Q34 12 34 29L39 59M170 753L41 879Q61 884 81 884L120 879L225 753Q213 748 198 748L170 753Z"  horiz-adv-x="313" vert-adv-y="1000"  />

      
      <glyph glyph-name="unicd" unicode="&#xcd;" d="M39 59L114 59L114 641L39 641Q34 652 34 670L39 700L274 700Q279 688 279 670L274 641L200 641L200 59L274 59Q279 48 279 29L274 0L39 0Q34 12 34 29L39 59M272 879L143 753Q129 748 116 748L88 753L193 879Q211 884 232 884L272 879Z"  horiz-adv-x="313" vert-adv-y="1000"  />

      
      <glyph glyph-name="unice" unicode="&#xce;" d="M39 59L114 59L114 641L39 641Q34 652 34 670L39 700L274 700Q279 688 279 670L274 641L200 641L200 59L274 59Q279 48 279 29L274 0L39 0Q34 12 34 29L39 59M241 753L157 837L72 753Q58 748 45 748L17 753L119 873Q137 878 156 878L194 873L296 753Q284 748 269 748L241 753Z"  horiz-adv-x="313" vert-adv-y="1000"  />

      
      <glyph glyph-name="unicf" unicode="&#xcf;" d="M101 852L101 753Q86 748 68 748L34 753L34 852Q49 857 68 857L101 852M279 852L279 753Q264 748 246 748L212 753L212 852Q227 857 246 857L279 852M39 59L114 59L114 641L39 641Q34 652 34 670L39 700L274 700Q279 688 279 670L274 641L200 641L200 59L274 59Q279 48 279 29L274 0L39 0Q34 12 34 29L39 59Z"  horiz-adv-x="313" vert-adv-y="1000"  />

      
      <glyph glyph-name="unid0" unicode="&#xd0;" d="M95 695Q185 704 322 704Q450 704 507.50 662Q565 620 565 537L565 163Q565 80 507.50 38Q450-4 322-4Q261-4 204.50-2Q148 0 122 2L95 5L95 332L43 332Q38 343 38 360L43 388L95 388L95 695M337 332L181 332L181 54L322 54Q407 54 443 80Q479 106 479 163L479 537Q479 594 443 620Q407 646 322 646L181 646L181 388L337 388Q341 377 341 360L337 332Z"  horiz-adv-x="626" vert-adv-y="1000"  />

      
      <glyph glyph-name="unid1" unicode="&#xd1;" d="M62 3L62 697Q80 702 100 702L137 697L472 160L472 697Q492 702 513 702L554 697L554 3Q536-2 517-2L480 3L145 540L145 3Q125-2 104-2L62 3M156 753L156 758Q156 803 173.50 824.50Q191 846 234 846Q267 846 290.50 832Q314 818 331 804Q348 790 366 790Q390 790 400 801Q410 812 410 836L410 841Q422 846 435 846L459 841L459 837Q459 791 442 769.50Q425 748 381 748Q355 748 334.50 757Q314 766 303 776Q292 786 278 795Q264 804 250 804Q225 804 215.50 793.50Q206 783 206 758L206 753Q194 748 181 748L156 753Z"  horiz-adv-x="617" vert-adv-y="1000"  />

      
      <glyph glyph-name="unid2" unicode="&#xd2;" d="M60 163L60 537Q60 620 118 662.50Q176 705 304 705Q432 705 490 662.50Q548 620 548 537L548 163Q548 80 490 37.50Q432-5 304-5Q176-5 118 37.50Q60 80 60 163M147 537L147 163Q147 106 183 80Q219 54 304 54Q390 54 425.50 80Q461 106 461 163L461 537Q461 594 425.50 620Q390 646 304 646Q219 646 183 620Q147 594 147 537M318 753L189 879Q208 884 228 884L268 879L373 753Q360 748 345 748L318 753Z"  horiz-adv-x="608" vert-adv-y="1000"  />

      
      <glyph glyph-name="unid3" unicode="&#xd3;" d="M60 163L60 537Q60 620 118 662.50Q176 705 304 705Q432 705 490 662.50Q548 620 548 537L548 163Q548 80 490 37.50Q432-5 304-5Q176-5 118 37.50Q60 80 60 163M147 537L147 163Q147 106 183 80Q219 54 304 54Q390 54 425.50 80Q461 106 461 163L461 537Q461 594 425.50 620Q390 646 304 646Q219 646 183 620Q147 594 147 537M420 879L290 753Q276 748 263 748L236 753L341 879Q359 884 380 884L420 879Z"  horiz-adv-x="608" vert-adv-y="1000"  />

      
      <glyph glyph-name="unid4" unicode="&#xd4;" d="M60 163L60 537Q60 620 118 662.50Q176 705 304 705Q432 705 490 662.50Q548 620 548 537L548 163Q548 80 490 37.50Q432-5 304-5Q176-5 118 37.50Q60 80 60 163M147 537L147 163Q147 106 183 80Q219 54 304 54Q390 54 425.50 80Q461 106 461 163L461 537Q461 594 425.50 620Q390 646 304 646Q219 646 183 620Q147 594 147 537M389 753L304 837L220 753Q205 748 192 748L165 753L267 873Q284 878 304 878L342 873L443 753Q431 748 416 748L389 753Z"  horiz-adv-x="608" vert-adv-y="1000"  />

      
      <glyph glyph-name="unid5" unicode="&#xd5;" d="M60 163L60 537Q60 620 118 662.50Q176 705 304 705Q432 705 490 662.50Q548 620 548 537L548 163Q548 80 490 37.50Q432-5 304-5Q176-5 118 37.50Q60 80 60 163M147 537L147 163Q147 106 183 80Q219 54 304 54Q390 54 425.50 80Q461 106 461 163L461 537Q461 594 425.50 620Q390 646 304 646Q219 646 183 620Q147 594 147 537M153 753L153 758Q153 803 170.50 824.50Q188 846 231 846Q264 846 287 832Q310 818 327 804Q344 790 362 790Q387 790 396.50 800.50Q406 811 406 836L406 841Q418 846 431 846L456 841L456 837Q456 791 438.50 769.50Q421 748 378 748Q345 748 321.50 762Q298 776 281 790Q264 804 246 804Q221 804 211.50 793.50Q202 783 202 758L202 753Q190 748 177 748L153 753Z"  horiz-adv-x="608" vert-adv-y="1000"  />

      
      <glyph glyph-name="unid6" unicode="&#xd6;" d="M60 163L60 537Q60 620 118 662.50Q176 705 304 705Q432 705 490 662.50Q548 620 548 537L548 163Q548 80 490 37.50Q432-5 304-5Q176-5 118 37.50Q60 80 60 163M147 537L147 163Q147 106 183 80Q219 54 304 54Q390 54 425.50 80Q461 106 461 163L461 537Q461 594 425.50 620Q390 646 304 646Q219 646 183 620Q147 594 147 537M233 852L233 753Q217 748 199 748L166 753L166 852Q180 857 199 857L233 852M443 852L443 753Q427 748 409 748L376 753L376 852Q390 857 409 857L443 852Z"  horiz-adv-x="608" vert-adv-y="1000"  />

      
      <glyph glyph-name="unid7" unicode="&#xd7;" d="M77 468L206 339L335 468Q346 463 357 452L374 429L244 300L373 171Q369 161 357 149L334 132L206 261L77 132Q66 137 54 149L38 171L167 300L38 429Q42 440 54 452L77 468Z"  horiz-adv-x="412" vert-adv-y="1000"  />

      
      <glyph glyph-name="unid8" unicode="&#xd8;" d="M565 697L522 630Q548 594 548 537L548 163Q548 80 490 37.50Q432-5 304-5Q188-5 129 30L112 3Q94-2 78-2L43 3L86 69Q60 107 60 163L60 537Q60 620 118 662.50Q176 705 304 705Q418 705 477 670L495 697Q511 702 530 702L565 697M465 543L168 88Q204 52 304 52Q392 52 428.50 78.50Q465 105 465 163L465 543M143 537L143 157L439 612Q403 648 304 648Q217 648 180 621.50Q143 595 143 537Z"  horiz-adv-x="608" vert-adv-y="1000"  />

      
      <glyph glyph-name="unid9" unicode="&#xd9;" d="M542 697L542 163Q542 80 485 37.50Q428-5 302-5Q177-5 119.50 37.50Q62 80 62 163L62 697Q83 702 106 702L149 697L149 163Q149 106 184 80Q219 54 302 54Q386 54 421 80Q456 106 456 163L456 697Q477 702 499 702L542 697M316 753L187 879Q207 884 227 884L266 879L371 753Q358 748 343 748L316 753Z"  horiz-adv-x="605" vert-adv-y="1000"  />

      
      <glyph glyph-name="unida" unicode="&#xda;" d="M542 697L542 163Q542 80 485 37.50Q428-5 302-5Q177-5 119.50 37.50Q62 80 62 163L62 697Q83 702 106 702L149 697L149 163Q149 106 184 80Q219 54 302 54Q386 54 421 80Q456 106 456 163L456 697Q477 702 499 702L542 697M418 879L289 753Q274 748 261 748L234 753L339 879Q357 884 378 884L418 879Z"  horiz-adv-x="605" vert-adv-y="1000"  />

      
      <glyph glyph-name="unidb" unicode="&#xdb;" d="M542 697L542 163Q542 80 485 37.50Q428-5 302-5Q177-5 119.50 37.50Q62 80 62 163L62 697Q83 702 106 702L149 697L149 163Q149 106 184 80Q219 54 302 54Q386 54 421 80Q456 106 456 163L456 697Q477 702 499 702L542 697M387 753L302 837L218 753Q203 748 190 748L163 753L265 873Q282 878 302 878L340 873L442 753Q429 748 414 748L387 753Z"  horiz-adv-x="605" vert-adv-y="1000"  />

      
      <glyph glyph-name="unidc" unicode="&#xdc;" d="M542 697L542 163Q542 80 485 37.50Q428-5 302-5Q177-5 119.50 37.50Q62 80 62 163L62 697Q83 702 106 702L149 697L149 163Q149 106 184 80Q219 54 302 54Q386 54 421 80Q456 106 456 163L456 697Q477 702 499 702L542 697M231 852L231 753Q216 748 197 748L164 753L164 852Q178 857 197 857L231 852M441 852L441 753Q426 748 407 748L374 753L374 852Q388 857 407 857L441 852Z"  horiz-adv-x="605" vert-adv-y="1000"  />

      
      <glyph glyph-name="unidd" unicode="&#xdd;" d="M549 697L332 291L332 3Q310-2 289-2L246 3L246 290L28 697Q53 702 75 702L122 697L289 373L455 697Q480 702 503 702L549 697M404 879L275 753Q261 748 248 748L220 753L325 879Q343 884 364 884L404 879Z"  horiz-adv-x="577" vert-adv-y="1000"  />

      
      <glyph glyph-name="unide" unicode="&#xde;" d="M149 697L149 560Q193 564 261 564Q369 564 417.50 522Q466 480 466 396L466 330Q466 247 417.50 205Q369 163 261 163L149 167L149 3Q127-2 106-2L62 3L62 697Q83 702 106 702L149 697M149 505L149 221L258 221Q324 221 352 247Q380 273 380 330L380 396Q380 453 352 479Q324 505 258 505L149 505Z"  horiz-adv-x="523" vert-adv-y="1000"  />

      
      <glyph glyph-name="unidf" unicode="&#xdf;" d="M101 3L101 447L49 447Q44 457 44 474L49 502L101 502L101 560Q101 632 141 668.50Q181 705 272 705Q366 705 406.50 668.50Q447 632 447 560L447 544Q447 511 437 488.50Q427 466 413 454.50Q399 443 385 433Q371 423 361 407.50Q351 392 351 369L351 354Q351 326 374.50 312.50Q398 299 443 289Q471 283 489.50 278Q508 273 534.50 261.50Q561 250 577 237Q593 224 605 202Q617 180 617 153L617 133Q617 64 576 29Q535-6 442-6Q347-6 308 30Q269 66 269 139L269 148Q288 153 309 153L349 148L349 139Q349 92 369.50 71Q390 50 442 50Q492 50 513 70Q534 90 534 133L534 153Q534 183 509.50 198.50Q485 214 440 224Q413 230 394.50 234.50Q376 239 350 250Q324 261 308.50 273.50Q293 286 281.50 307Q270 328 270 354L270 369Q270 401 280 422.50Q290 444 304 455Q318 466 331.50 476Q345 486 355 502.50Q365 519 365 544L365 560Q365 603 344 622.50Q323 642 272 642Q223 642 203.50 622Q184 602 184 560L184 3Q164-2 142-2L101 3Z"  horiz-adv-x="665" vert-adv-y="1000"  />

      
      <glyph glyph-name="unie0" unicode="&#xe0;" d="M371 3L371 43Q364 38 351 30Q338 22 293 8.50Q248-5 198-5Q125-5 92.50 29Q60 63 60 130L60 145Q60 206 102 239Q144 272 240 282L371 296L371 352Q371 403 345.50 426.50Q320 450 258 450Q197 450 172.50 427Q148 404 148 354L148 342Q129 337 109 337L69 342L69 354Q69 430 111.50 467.50Q154 505 258 505Q362 505 407.50 466.50Q453 428 453 352L453 3Q433-2 412-2L371 3M371 243L254 229Q193 222 168 202Q143 182 143 145L143 130Q143 88 162 69Q181 50 228 50Q274 50 309.50 62Q345 74 358 86L371 99L371 243M271 571L142 697Q162 702 182 702L221 697L326 571Q314 566 299 566L271 571Z"  horiz-adv-x="516" vert-adv-y="1000"  />

      
      <glyph glyph-name="unie1" unicode="&#xe1;" d="M371 3L371 43Q364 38 351 30Q338 22 293 8.50Q248-5 198-5Q125-5 92.50 29Q60 63 60 130L60 145Q60 206 102 239Q144 272 240 282L371 296L371 352Q371 403 345.50 426.50Q320 450 258 450Q197 450 172.50 427Q148 404 148 354L148 342Q129 337 109 337L69 342L69 354Q69 430 111.50 467.50Q154 505 258 505Q362 505 407.50 466.50Q453 428 453 352L453 3Q433-2 412-2L371 3M371 243L254 229Q193 222 168 202Q143 182 143 145L143 130Q143 88 162 69Q181 50 228 50Q274 50 309.50 62Q345 74 358 86L371 99L371 243M373 697L244 571Q230 566 216 566L189 571L294 697Q312 702 333 702L373 697Z"  horiz-adv-x="516" vert-adv-y="1000"  />

      
      <glyph glyph-name="unie2" unicode="&#xe2;" d="M371 3L371 43Q364 38 351 30Q338 22 293 8.50Q248-5 198-5Q125-5 92.50 29Q60 63 60 130L60 145Q60 206 102 239Q144 272 240 282L371 296L371 352Q371 403 345.50 426.50Q320 450 258 450Q197 450 172.50 427Q148 404 148 354L148 342Q129 337 109 337L69 342L69 354Q69 430 111.50 467.50Q154 505 258 505Q362 505 407.50 466.50Q453 428 453 352L453 3Q433-2 412-2L371 3M371 243L254 229Q193 222 168 202Q143 182 143 145L143 130Q143 88 162 69Q181 50 228 50Q274 50 309.50 62Q345 74 358 86L371 99L371 243M342 577L258 662L173 577Q159 572 146 572L118 577L220 697Q238 702 257 702L295 697L397 577Q384 572 369 572L342 577Z"  horiz-adv-x="516" vert-adv-y="1000"  />

      
      <glyph glyph-name="unie3" unicode="&#xe3;" d="M371 3L371 43Q364 38 351 30Q338 22 293 8.50Q248-5 198-5Q125-5 92.50 29Q60 63 60 130L60 145Q60 206 102 239Q144 272 240 282L371 296L371 352Q371 403 345.50 426.50Q320 450 258 450Q197 450 172.50 427Q148 404 148 354L148 342Q129 337 109 337L69 342L69 354Q69 430 111.50 467.50Q154 505 258 505Q362 505 407.50 466.50Q453 428 453 352L453 3Q433-2 412-2L371 3M371 243L254 229Q193 222 168 202Q143 182 143 145L143 130Q143 88 162 69Q181 50 228 50Q274 50 309.50 62Q345 74 358 86L371 99L371 243M106 608L106 612Q106 657 123.50 679Q141 701 184 701Q217 701 240.50 687Q264 673 281 659Q298 645 316 645Q340 645 350 655.50Q360 666 360 691L360 696Q372 701 385 701L409 696L409 691Q409 646 392 624.50Q375 603 331 603Q305 603 284.50 611.50Q264 620 253 631Q242 642 228 650.50Q214 659 200 659Q175 659 165 648.50Q155 638 155 613L155 608Q144 603 131 603L106 608Z"  horiz-adv-x="516" vert-adv-y="1000"  />

      
      <glyph glyph-name="unie4" unicode="&#xe4;" d="M371 3L371 43Q364 38 351 30Q338 22 293 8.50Q248-5 198-5Q125-5 92.50 29Q60 63 60 130L60 145Q60 206 102 239Q144 272 240 282L371 296L371 352Q371 403 345.50 426.50Q320 450 258 450Q197 450 172.50 427Q148 404 148 354L148 342Q129 337 109 337L69 342L69 354Q69 430 111.50 467.50Q154 505 258 505Q362 505 407.50 466.50Q453 428 453 352L453 3Q433-2 412-2L371 3M371 243L254 229Q193 222 168 202Q143 182 143 145L143 130Q143 88 162 69Q181 50 228 50Q274 50 309.50 62Q345 74 358 86L371 99L371 243M186 697L186 598Q171 593 153 593L119 598L119 697Q134 702 153 702L186 697M396 697L396 598Q381 593 363 593L329 598L329 697Q344 702 363 702L396 697Z"  horiz-adv-x="516" vert-adv-y="1000"  />

      
      <glyph glyph-name="unie5" unicode="&#xe5;" d="M371 3L371 43Q364 38 351 30Q338 22 293 8.50Q248-5 198-5Q125-5 92.50 29Q60 63 60 130L60 145Q60 206 102 239Q144 272 240 282L371 296L371 352Q371 403 345.50 426.50Q320 450 258 450Q197 450 172.50 427Q148 404 148 354L148 342Q129 337 109 337L69 342L69 354Q69 430 111.50 467.50Q154 505 258 505Q362 505 407.50 466.50Q453 428 453 352L453 3Q433-2 412-2L371 3M371 243L254 229Q193 222 168 202Q143 182 143 145L143 130Q143 88 162 69Q181 50 228 50Q274 50 309.50 62Q345 74 358 86L371 99L371 243M175 618L175 634Q175 703 258 703Q340 703 340 634L340 618Q340 549 258 549Q175 549 175 618M212 634L212 618Q212 582 258 582Q303 582 303 618L303 634Q303 670 258 670Q212 670 212 634Z"  horiz-adv-x="516" vert-adv-y="1000"  />

      
      <glyph glyph-name="unie6" unicode="&#xe6;" d="M198-5Q125-5 92.50 29Q60 63 60 130L60 145Q60 206 102 239Q144 272 240 282L371 296L371 352Q371 403 345.50 426.50Q320 450 258 450Q197 450 172.50 427Q148 404 148 354L148 342Q129 337 109 337L69 342L69 354Q69 430 111.50 467.50Q154 505 258 505Q379 505 413 435Q447 505 565 505Q669 505 711.50 465.50Q754 426 754 346L754 232Q699 224 604 224L453 224L453 154Q453 99 481 74.50Q509 50 579 50Q624 50 664 59Q704 68 722 76L740 85Q745 74 745 57L740 30Q685-5 579-5Q444-5 410 73Q366-5 198-5M371 243L254 229Q193 222 168 202Q143 182 143 145L143 130Q143 88 162 69Q181 50 228 50Q305 50 338 75Q371 100 371 154L371 243M453 279L676 279L676 346Q676 401 651 425.50Q626 450 564 450Q503 450 478 425.50Q453 401 453 346L453 279Z"  horiz-adv-x="815" vert-adv-y="1000"  />

      
      <glyph glyph-name="unie7" unicode="&#xe7;" d="M60 154L60 346Q60 425 106 465Q152 505 256 505Q359 505 402 465.50Q445 426 445 346L445 333Q427 328 407 328L370 333L370 346Q370 401 345 425.50Q320 450 256 450Q193 450 168 425.50Q143 401 143 346L143 154Q143 99 171 74.50Q199 50 270 50Q314 50 354 59Q394 68 412 76L430 85Q436 74 436 57Q436 50 434.50 43Q433 36 432 33L430 30Q377-4 274-5L274-14Q274-29 287-37Q300-45 316-48.50Q332-52 345-63.50Q358-75 358-94L358-103Q358-138 336-154.50Q314-171 264-171Q212-171 192.50-154Q173-137 173-101L173-96Q186-94 197-94L220-96L220-101Q220-121 229.50-129Q239-137 264-137Q290-137 299.50-129.50Q309-122 309-103L309-94Q309-83 296-76.50Q283-70 267-66.50Q251-63 238-50Q225-37 225-14L225-3Q138 4 99 43.50Q60 83 60 154Z"  horiz-adv-x="497" vert-adv-y="1000"  />

      
      <glyph glyph-name="unie8" unicode="&#xe8;" d="M60 154L60 346Q60 425 107 465Q154 505 261 505Q369 505 413.50 465.50Q458 426 458 346L458 232Q399 224 300 224L143 224L143 154Q143 99 172 74.50Q201 50 275 50Q322 50 364 59Q406 68 424 76L443 85Q449 74 449 57Q449 50 447.50 43Q446 36 444 33L443 30Q386-5 275-5Q161-5 110.50 35Q60 75 60 154M143 279L379 279L379 346Q379 401 353 425.50Q327 450 261 450Q195 450 169 425.50Q143 401 143 346L143 279M273 571L144 697Q163 702 183 702L223 697L328 571Q315 566 300 566L273 571Z"  horiz-adv-x="518" vert-adv-y="1000"  />

      
      <glyph glyph-name="unie9" unicode="&#xe9;" d="M60 154L60 346Q60 425 107 465Q154 505 261 505Q369 505 413.50 465.50Q458 426 458 346L458 232Q399 224 300 224L143 224L143 154Q143 99 172 74.50Q201 50 275 50Q322 50 364 59Q406 68 424 76L443 85Q449 74 449 57Q449 50 447.50 43Q446 36 444 33L443 30Q386-5 275-5Q161-5 110.50 35Q60 75 60 154M143 279L379 279L379 346Q379 401 353 425.50Q327 450 261 450Q195 450 169 425.50Q143 401 143 346L143 279M374 697L245 571Q230 566 217 566L190 571L295 697Q313 702 334 702L374 697Z"  horiz-adv-x="518" vert-adv-y="1000"  />

      
      <glyph glyph-name="uniea" unicode="&#xea;" d="M60 154L60 346Q60 425 107 465Q154 505 261 505Q369 505 413.50 465.50Q458 426 458 346L458 232Q399 224 300 224L143 224L143 154Q143 99 172 74.50Q201 50 275 50Q322 50 364 59Q406 68 424 76L443 85Q449 74 449 57Q449 50 447.50 43Q446 36 444 33L443 30Q386-5 275-5Q161-5 110.50 35Q60 75 60 154M143 279L379 279L379 346Q379 401 353 425.50Q327 450 261 450Q195 450 169 425.50Q143 401 143 346L143 279M344 577L259 662L175 577Q160 572 147 572L120 577L222 697Q239 702 259 702L297 697L398 577Q386 572 371 572L344 577Z"  horiz-adv-x="518" vert-adv-y="1000"  />

      
      <glyph glyph-name="unieb" unicode="&#xeb;" d="M60 154L60 346Q60 425 107 465Q154 505 261 505Q369 505 413.50 465.50Q458 426 458 346L458 232Q399 224 300 224L143 224L143 154Q143 99 172 74.50Q201 50 275 50Q322 50 364 59Q406 68 424 76L443 85Q449 74 449 57Q449 50 447.50 43Q446 36 444 33L443 30Q386-5 275-5Q161-5 110.50 35Q60 75 60 154M143 279L379 279L379 346Q379 401 353 425.50Q327 450 261 450Q195 450 169 425.50Q143 401 143 346L143 279M188 697L188 598Q172 593 154 593L121 598L121 697Q135 702 154 702L188 697M398 697L398 598Q382 593 364 593L331 598L331 697Q345 702 364 702L398 697Z"  horiz-adv-x="518" vert-adv-y="1000"  />

      
      <glyph glyph-name="uniec" unicode="&#xec;" d="M117 571L-12 697Q8 702 28 702L67 697L172 571Q160 566 145 566L117 571M145 497L145 3Q124-2 104-2L62 3L62 497Q82 502 104 502L145 497Z"  horiz-adv-x="207" vert-adv-y="1000"  />

      
      <glyph glyph-name="unied" unicode="&#xed;" d="M219 697L90 571Q76 566 63 566L35 571L140 697Q158 702 179 702L219 697M145 497L145 3Q124-2 104-2L62 3L62 497Q82 502 104 502L145 497Z"  horiz-adv-x="207" vert-adv-y="1000"  />

      
      <glyph glyph-name="uniee" unicode="&#xee;" d="M145 497L145 3Q124-2 104-2L62 3L62 497Q82 502 104 502L145 497M188 577L104 662L19 577Q5 572-8 572L-36 577L66 697Q84 702 103 702L141 697L243 577Q231 572 215 572L188 577Z"  horiz-adv-x="207" vert-adv-y="1000"  />

      
      <glyph glyph-name="unief" unicode="&#xef;" d="M145 497L145 3Q124-2 104-2L62 3L62 497Q82 502 104 502L145 497M59 697L59 598Q44 593 26 593L-8 598L-8 697Q7 702 26 702L59 697M215 697L215 598Q200 593 181 593L148 598L148 697Q163 702 181 702L215 697Z"  horiz-adv-x="207" vert-adv-y="1000"  />

      
      <glyph glyph-name="unif0" unicode="&#xf0;" d="M415 697L362 644Q464 588 464 501L464 154Q464 76 416.50 35.50Q369-5 263-5Q157-5 108.50 35.50Q60 76 60 154L60 346Q60 425 95.50 465Q131 505 211 505Q260 505 303 493Q346 481 364 469L382 457L382 501Q382 556 314 596L272 553Q256 548 242 548L213 553L273 616Q237 630 193.50 640.50Q150 651 124 654L98 657L98 658Q97 660 96.50 662.50Q96 665 95 668Q94 671 93.50 675.50Q93 680 93 685L98 712Q217 705 319 664L351 697Q366 702 383 702L415 697M382 154L382 401Q377 406 367.50 414.50Q358 423 321 436.50Q284 450 237 450Q184 450 163 425.50Q142 401 142 346L142 154Q142 100 169.50 75Q197 50 262 50Q327 50 354.50 75Q382 100 382 154Z"  horiz-adv-x="525" vert-adv-y="1000"  />

      
      <glyph glyph-name="unif1" unicode="&#xf1;" d="M145 497L145 457Q152 462 164.50 470Q177 478 221 491.50Q265 505 314 505Q393 505 428.50 465Q464 425 464 346L464 3Q444-2 422-2L381 3L381 346Q381 401 360.50 425.50Q340 450 287 450Q258 450 233 445Q208 440 192.50 433Q177 426 165.50 418.50Q154 411 150 406L145 401L145 3Q124-2 104-2L62 3L62 497Q82 502 104 502L145 497M110 608L110 612Q110 657 127.50 679Q145 701 188 701Q221 701 244.50 687Q268 673 285 659Q302 645 320 645Q345 645 354.50 655.50Q364 666 364 691L364 696Q376 701 389 701L413 696L413 691Q413 646 396 624.50Q379 603 335 603Q309 603 288.50 611.50Q268 620 257 631Q246 642 232 650.50Q218 659 204 659Q179 659 169.50 648.50Q160 638 160 613L160 608Q148 603 135 603L110 608Z"  horiz-adv-x="524" vert-adv-y="1000"  />

      
      <glyph glyph-name="unif2" unicode="&#xf2;" d="M60 154L60 346Q60 424 108.50 464.50Q157 505 264 505Q371 505 419.50 464.50Q468 424 468 346L468 154Q468 76 419.50 35.50Q371-5 264-5Q157-5 108.50 35.50Q60 76 60 154M143 346L143 154Q143 99 170.50 74.50Q198 50 264 50Q330 50 357.50 74.50Q385 99 385 154L385 346Q385 401 357.50 425.50Q330 450 264 450Q198 450 170.50 425.50Q143 401 143 346M278 571L149 697Q168 702 188 702L228 697L333 571Q320 566 305 566L278 571Z"  horiz-adv-x="528" vert-adv-y="1000"  />

      
      <glyph glyph-name="unif3" unicode="&#xf3;" d="M60 154L60 346Q60 424 108.50 464.50Q157 505 264 505Q371 505 419.50 464.50Q468 424 468 346L468 154Q468 76 419.50 35.50Q371-5 264-5Q157-5 108.50 35.50Q60 76 60 154M143 346L143 154Q143 99 170.50 74.50Q198 50 264 50Q330 50 357.50 74.50Q385 99 385 154L385 346Q385 401 357.50 425.50Q330 450 264 450Q198 450 170.50 425.50Q143 401 143 346M379 697L250 571Q235 566 222 566L195 571L300 697Q318 702 339 702L379 697Z"  horiz-adv-x="528" vert-adv-y="1000"  />

      
      <glyph glyph-name="unif4" unicode="&#xf4;" d="M60 154L60 346Q60 424 108.50 464.50Q157 505 264 505Q371 505 419.50 464.50Q468 424 468 346L468 154Q468 76 419.50 35.50Q371-5 264-5Q157-5 108.50 35.50Q60 76 60 154M143 346L143 154Q143 99 170.50 74.50Q198 50 264 50Q330 50 357.50 74.50Q385 99 385 154L385 346Q385 401 357.50 425.50Q330 450 264 450Q198 450 170.50 425.50Q143 401 143 346M349 577L264 662L180 577Q165 572 152 572L125 577L227 697Q244 702 264 702L302 697L403 577Q391 572 376 572L349 577Z"  horiz-adv-x="528" vert-adv-y="1000"  />

      
      <glyph glyph-name="unif5" unicode="&#xf5;" d="M60 154L60 346Q60 424 108.50 464.50Q157 505 264 505Q371 505 419.50 464.50Q468 424 468 346L468 154Q468 76 419.50 35.50Q371-5 264-5Q157-5 108.50 35.50Q60 76 60 154M143 346L143 154Q143 99 170.50 74.50Q198 50 264 50Q330 50 357.50 74.50Q385 99 385 154L385 346Q385 401 357.50 425.50Q330 450 264 450Q198 450 170.50 425.50Q143 401 143 346M113 608L113 612Q113 658 130.50 679.50Q148 701 191 701Q224 701 247 687Q270 673 287 659Q304 645 322 645Q347 645 356.50 655.50Q366 666 366 691L366 696Q378 701 391 701L416 696L416 691Q416 646 398.50 624.50Q381 603 338 603Q305 603 281.50 617Q258 631 241 645Q224 659 206 659Q181 659 171.50 648.50Q162 638 162 613L162 608Q150 603 137 603L113 608Z"  horiz-adv-x="528" vert-adv-y="1000"  />

      
      <glyph glyph-name="unif6" unicode="&#xf6;" d="M60 154L60 346Q60 424 108.50 464.50Q157 505 264 505Q371 505 419.50 464.50Q468 424 468 346L468 154Q468 76 419.50 35.50Q371-5 264-5Q157-5 108.50 35.50Q60 76 60 154M143 346L143 154Q143 99 170.50 74.50Q198 50 264 50Q330 50 357.50 74.50Q385 99 385 154L385 346Q385 401 357.50 425.50Q330 450 264 450Q198 450 170.50 425.50Q143 401 143 346M193 697L193 598Q177 593 159 593L126 598L126 697Q140 702 159 702L193 697M403 697L403 598Q387 593 369 593L336 598L336 697Q350 702 369 702L403 697Z"  horiz-adv-x="528" vert-adv-y="1000"  />

      
      <glyph glyph-name="unif7" unicode="&#xf7;" d="M376 269L43 269Q38 279 38 296L43 324L376 324Q381 313 381 296L376 269M242 486L242 395Q226 391 210 391L177 395L177 486Q193 490 210 490L242 486M242 197L242 106Q226 102 210 102L177 106L177 197Q193 201 210 201L242 197Z"  horiz-adv-x="420" vert-adv-y="1000"  />

      
      <glyph glyph-name="unif8" unicode="&#xf8;" d="M464 497L432 452Q468 415 468 346L468 154Q468 76 419.50 35.50Q371-5 264-5Q176-5 128 22L114 3Q99-2 85-2L56 3L91 52Q60 89 60 154L60 346Q60 424 108.50 464.50Q157 505 264 505Q345 505 395 480L407 497Q420 502 436 502L464 497M393 346Q393 369 388 389L163 72Q192 46 264 46Q335 46 364 71.50Q393 97 393 154L393 346M135 346L135 154Q135 129 138 118L360 431Q331 454 264 454Q193 454 164 428.50Q135 403 135 346Z"  horiz-adv-x="528" vert-adv-y="1000"  />

      
      <glyph glyph-name="unif9" unicode="&#xf9;" d="M378 3L378 43Q371 38 358.50 30Q346 22 302.50 8.50Q259-5 211-5Q132-5 97 35Q62 75 62 154L62 497Q82 502 104 502L145 497L145 154Q145 99 165.50 74.50Q186 50 237 50Q266 50 291 55Q316 60 331 67Q346 74 357.50 81.50Q369 89 374 94L378 99L378 497Q399 502 419 502L461 497L461 3Q441-2 419-2L378 3M274 571L144 697Q164 702 184 702L224 697L329 571Q316 566 301 566L274 571Z"  horiz-adv-x="521" vert-adv-y="1000"  />

      
      <glyph glyph-name="unifa" unicode="&#xfa;" d="M378 3L378 43Q371 38 358.50 30Q346 22 302.50 8.50Q259-5 211-5Q132-5 97 35Q62 75 62 154L62 497Q82 502 104 502L145 497L145 154Q145 99 165.50 74.50Q186 50 237 50Q266 50 291 55Q316 60 331 67Q346 74 357.50 81.50Q369 89 374 94L378 99L378 497Q399 502 419 502L461 497L461 3Q441-2 419-2L378 3M376 697L246 571Q232 566 219 566L191 571L297 697Q315 702 336 702L376 697Z"  horiz-adv-x="521" vert-adv-y="1000"  />

      
      <glyph glyph-name="unifb" unicode="&#xfb;" d="M378 3L378 43Q371 38 358.50 30Q346 22 302.50 8.50Q259-5 211-5Q132-5 97 35Q62 75 62 154L62 497Q82 502 104 502L145 497L145 154Q145 99 165.50 74.50Q186 50 237 50Q266 50 291 55Q316 60 331 67Q346 74 357.50 81.50Q369 89 374 94L378 99L378 497Q399 502 419 502L461 497L461 3Q441-2 419-2L378 3M344 577L260 662L176 577Q161 572 148 572L121 577L222 697Q240 702 260 702L298 697L399 577Q387 572 372 572L344 577Z"  horiz-adv-x="521" vert-adv-y="1000"  />

      
      <glyph glyph-name="unifc" unicode="&#xfc;" d="M378 3L378 43Q371 38 358.50 30Q346 22 302.50 8.50Q259-5 211-5Q132-5 97 35Q62 75 62 154L62 497Q82 502 104 502L145 497L145 154Q145 99 165.50 74.50Q186 50 237 50Q266 50 291 55Q316 60 331 67Q346 74 357.50 81.50Q369 89 374 94L378 99L378 497Q399 502 419 502L461 497L461 3Q441-2 419-2L378 3M188 697L188 598Q173 593 155 593L122 598L122 697Q136 702 155 702L188 697M398 697L398 598Q383 593 365 593L332 598L332 697Q346 702 365 702L398 697Z"  horiz-adv-x="521" vert-adv-y="1000"  />

      
      <glyph glyph-name="unifd" unicode="&#xfd;" d="M209-71L235-1L209 3L31 497Q52 502 71 502L113 497L259 73L405 497Q427 502 447 502L487 497L283-69Q259-139 222-172Q185-205 122-205Q108-205 95-203Q82-201 76-199L70-197Q64-186 64-171Q64-164 65.50-157Q67-150 68-147L70-144Q88-150 120-150Q181-150 209-71M370 697L241 571Q226 566 213 566L186 571L291 697Q309 702 330 702L370 697Z"  horiz-adv-x="510" vert-adv-y="1000"  />

      
      <glyph glyph-name="unife" unicode="&#xfe;" d="M145 697L145 457Q152 462 164.50 470Q177 478 220 491.50Q263 505 311 505Q389 505 423.50 465Q458 425 458 346L458 154Q458 75 417.50 35Q377-5 286-5Q238-5 203 6Q168 17 158.50 25.50Q149 34 145 40L145-197Q125-202 104-202L62-197L62 697Q82 702 104 702L145 697M375 154L375 346Q375 401 355 425.50Q335 450 284 450Q239 450 204.50 438Q170 426 158 414L145 401L145 154Q145 99 173.50 74.50Q202 50 272 50Q330 50 352.50 74.50Q375 99 375 154Z"  horiz-adv-x="518" vert-adv-y="1000"  />

      
      <glyph glyph-name="uniff" unicode="&#xff;" d="M209-71L235-1L209 3L31 497Q52 502 71 502L113 497L259 73L405 497Q427 502 447 502L487 497L283-69Q259-139 222-172Q185-205 122-205Q108-205 95-203Q82-201 76-199L70-197Q64-186 64-171Q64-164 65.50-157Q67-150 68-147L70-144Q88-150 120-150Q181-150 209-71M183 697L183 598Q168 593 149 593L116 598L116 697Q130 702 149 702L183 697M393 697L393 598Q378 593 359 593L326 598L326 697Q340 702 359 702L393 697Z"  horiz-adv-x="510" vert-adv-y="1000"  />

      
      <glyph glyph-name="uni0100" unicode="&#x0100;" d="M23 3L242 697Q269 702 301 702L359 697L578 3Q557-2 537-2L493 3L435 187L166 187L108 3Q85-2 65-2L23 3M301 628L181 246L420 246L301 628M423 773L177 773Q173 781 173 795L177 816L423 816Q428 808 428 795L423 773Z"  horiz-adv-x="601" vert-adv-y="1000"  />

      
      <glyph glyph-name="uni0101" unicode="&#x0101;" d="M371 3L371 43Q364 38 351 30Q338 22 293 8.50Q248-5 198-5Q125-5 92.50 29Q60 63 60 130L60 145Q60 206 102 239Q144 272 240 282L371 296L371 352Q371 403 345.50 426.50Q320 450 258 450Q197 450 172.50 427Q148 404 148 354L148 342Q129 337 109 337L69 342L69 354Q69 430 111.50 467.50Q154 505 258 505Q362 505 407.50 466.50Q453 428 453 352L453 3Q433-2 412-2L371 3M371 243L254 229Q193 222 168 202Q143 182 143 145L143 130Q143 88 162 69Q181 50 228 50Q274 50 309.50 62Q345 74 358 86L371 99L371 243M381 601L135 601Q130 610 130 623L135 645L381 645Q385 636 385 623L381 601Z"  horiz-adv-x="516" vert-adv-y="1000"  />

      
      <glyph glyph-name="uni0102" unicode="&#x0102;" d="M23 3L242 697Q269 702 301 702L359 697L578 3Q557-2 537-2L493 3L435 187L166 187L108 3Q85-2 65-2L23 3M301 628L181 246L420 246L301 628M402 773.50Q402 773.50 387.50 760.75Q373 748 300 748Q227 748 198 773.50Q169 799 169 852L169 862Q182 867 197 867L226 862L226 851Q226 818 242 803.50Q258 789 300 789Q341 789 357.50 803.50Q374 818 374 851L374 862Q388 867 403 867L431 862L431 852Q431 799 402 773.50Z"  horiz-adv-x="601" vert-adv-y="1000"  />

      
      <glyph glyph-name="uni0103" unicode="&#x0103;" d="M371 3L371 43Q364 38 351 30Q338 22 293 8.50Q248-5 198-5Q125-5 92.50 29Q60 63 60 130L60 145Q60 206 102 239Q144 272 240 282L371 296L371 352Q371 403 345.50 426.50Q320 450 258 450Q197 450 172.50 427Q148 404 148 354L148 342Q129 337 109 337L69 342L69 354Q69 430 111.50 467.50Q154 505 258 505Q362 505 407.50 466.50Q453 428 453 352L453 3Q433-2 412-2L371 3M371 243L254 229Q193 222 168 202Q143 182 143 145L143 130Q143 88 162 69Q181 50 228 50Q274 50 309.50 62Q345 74 358 86L371 99L371 243M360 608.50Q360 608.50 345.50 595.75Q331 583 258 583Q185 583 155.50 608.50Q126 634 126 687L126 697Q140 702 154 702L183 697L183 686Q183 653 199.50 638.50Q216 624 258 624Q299 624 315.50 638.50Q332 653 332 686L332 697Q346 702 360 702L389 697L389 687Q389 634 360 608.50Z"  horiz-adv-x="516" vert-adv-y="1000"  />

      
      <glyph glyph-name="uni0104" unicode="&#x0104;" d="M476-87Q476-45 523-1L493 3L435 187L166 187L108 3Q85-2 65-2L23 3L242 697Q269 702 301 702L359 697L578 3Q572 1 565 0Q525-40 525-82Q525-123 570-123Q584-123 597-119.50Q610-116 616-112L623-108Q627-115 627-126L623-143Q602-162 558-162Q518-162 497-142.50Q476-123 476-87M301 628L181 246L420 246L301 628Z"  horiz-adv-x="601" vert-adv-y="1000"  />

      
      <glyph glyph-name="uni0105" unicode="&#x0105;" d="M351-87Q351-45 398-1L371 3L371 43Q364 38 351 30Q338 22 293 8.50Q248-5 198-5Q125-5 92.50 29Q60 63 60 130L60 145Q60 206 102 239Q144 272 240 282L371 296L371 352Q371 403 345.50 426.50Q320 450 258 450Q197 450 172.50 427Q148 404 148 354L148 342Q129 337 109 337L69 342L69 354Q69 430 111.50 467.50Q154 505 258 505Q362 505 407.50 466.50Q453 428 453 352L453 3Q447 1 439 0Q400-43 400-82Q400-123 445-123Q459-123 472-119.50Q485-116 492-112L498-108Q501-115 501-126L498-143Q477-162 433-162Q351-162 351-87M371 243L254 229Q193 222 168 202Q143 182 143 145L143 130Q143 88 162 69Q181 50 228 50Q274 50 309.50 62Q345 74 358 86L371 99L371 243Z"  horiz-adv-x="516" vert-adv-y="1000"  />

      
      <glyph glyph-name="uni0106" unicode="&#x0106;" d="M60 163L60 537Q60 620 116 662.50Q172 705 298 705Q424 705 476.50 663Q529 621 529 537L529 523Q509 518 489 518L450 523L450 537Q450 594 416.50 620Q383 646 298 646Q214 646 180.50 620Q147 594 147 537L147 163Q147 106 182.50 80Q218 54 307 54Q365 54 416.50 65Q468 76 491 86Q514 96 514 98Q520 87 520 68Q520 60 518.50 52.50Q517 45 516 41L514 37Q506 32 490.50 25Q475 18 421.50 6.50Q368-5 307-5Q176-5 118 37.50Q60 80 60 163M407 879L277 753Q263 748 250 748L222 753L328 879Q346 884 367 884L407 879Z"  horiz-adv-x="582" vert-adv-y="1000"  />

      
      <glyph glyph-name="uni0107" unicode="&#x0107;" d="M60 154L60 346Q60 425 106 465Q152 505 256 505Q359 505 402 465.50Q445 426 445 346L445 333Q427 328 407 328L370 333L370 346Q370 401 345 425.50Q320 450 256 450Q193 450 168 425.50Q143 401 143 346L143 154Q143 99 171 74.50Q199 50 270 50Q314 50 354 59Q394 68 412 76L430 85Q436 74 436 57Q436 50 434.50 43Q433 36 432 33L430 30Q376-5 270-5Q159-5 109.50 35Q60 75 60 154M363 697L234 571Q219 566 206 566L179 571L284 697Q302 702 323 702L363 697Z"  horiz-adv-x="497" vert-adv-y="1000"  />

      
      <glyph glyph-name="uni0108" unicode="&#x0108;" d="M60 163L60 537Q60 620 116 662.50Q172 705 298 705Q424 705 476.50 663Q529 621 529 537L529 523Q509 518 489 518L450 523L450 537Q450 594 416.50 620Q383 646 298 646Q214 646 180.50 620Q147 594 147 537L147 163Q147 106 182.50 80Q218 54 307 54Q365 54 416.50 65Q468 76 491 86Q514 96 514 98Q520 87 520 68Q520 60 518.50 52.50Q517 45 516 41L514 37Q506 32 490.50 25Q475 18 421.50 6.50Q368-5 307-5Q176-5 118 37.50Q60 80 60 163M375 753L291 837L207 753Q192 748 179 748L152 753L253 873Q271 878 291 878L329 873L430 753Q418 748 403 748L375 753Z"  horiz-adv-x="582" vert-adv-y="1000"  />

      
      <glyph glyph-name="uni0109" unicode="&#x0109;" d="M60 154L60 346Q60 425 106 465Q152 505 256 505Q359 505 402 465.50Q445 426 445 346L445 333Q427 328 407 328L370 333L370 346Q370 401 345 425.50Q320 450 256 450Q193 450 168 425.50Q143 401 143 346L143 154Q143 99 171 74.50Q199 50 270 50Q314 50 354 59Q394 68 412 76L430 85Q436 74 436 57Q436 50 434.50 43Q433 36 432 33L430 30Q376-5 270-5Q159-5 109.50 35Q60 75 60 154M332 577L248 662L164 577Q149 572 136 572L109 577L210 697Q228 702 248 702L286 697L387 577Q375 572 360 572L332 577Z"  horiz-adv-x="497" vert-adv-y="1000"  />

      
      <glyph glyph-name="uni010A" unicode="&#x010A;" d="M60 163L60 537Q60 620 116 662.50Q172 705 298 705Q424 705 476.50 663Q529 621 529 537L529 523Q509 518 489 518L450 523L450 537Q450 594 416.50 620Q383 646 298 646Q214 646 180.50 620Q147 594 147 537L147 163Q147 106 182.50 80Q218 54 307 54Q365 54 416.50 65Q468 76 491 86Q514 96 514 98Q520 87 520 68Q520 60 518.50 52.50Q517 45 516 41L514 37Q506 32 490.50 25Q475 18 421.50 6.50Q368-5 307-5Q176-5 118 37.50Q60 80 60 163M332 858L332 753Q312 748 291 748L250 753L250 858Q270 863 291 863L332 858Z"  horiz-adv-x="582" vert-adv-y="1000"  />

      
      <glyph glyph-name="uni010B" unicode="&#x010B;" d="M60 154L60 346Q60 425 106 465Q152 505 256 505Q359 505 402 465.50Q445 426 445 346L445 333Q427 328 407 328L370 333L370 346Q370 401 345 425.50Q320 450 256 450Q193 450 168 425.50Q143 401 143 346L143 154Q143 99 171 74.50Q199 50 270 50Q314 50 354 59Q394 68 412 76L430 85Q436 74 436 57Q436 50 434.50 43Q433 36 432 33L430 30Q376-5 270-5Q159-5 109.50 35Q60 75 60 154M289 697L289 592Q269 587 248 587L207 592L207 697Q227 702 248 702L289 697Z"  horiz-adv-x="497" vert-adv-y="1000"  />

      
      <glyph glyph-name="uni010C" unicode="&#x010C;" d="M60 163L60 537Q60 620 116 662.50Q172 705 298 705Q424 705 476.50 663Q529 621 529 537L529 523Q509 518 489 518L450 523L450 537Q450 594 416.50 620Q383 646 298 646Q214 646 180.50 620Q147 594 147 537L147 163Q147 106 182.50 80Q218 54 307 54Q365 54 416.50 65Q468 76 491 86Q514 96 514 98Q520 87 520 68Q520 60 518.50 52.50Q517 45 516 41L514 37Q506 32 490.50 25Q475 18 421.50 6.50Q368-5 307-5Q176-5 118 37.50Q60 80 60 163M207 873L291 788L375 873Q390 878 403 878L430 873L329 753Q311 748 291 748L253 753L152 873Q164 878 179 878L207 873Z"  horiz-adv-x="582" vert-adv-y="1000"  />

      
      <glyph glyph-name="uni010D" unicode="&#x010D;" d="M60 154L60 346Q60 425 106 465Q152 505 256 505Q359 505 402 465.50Q445 426 445 346L445 333Q427 328 407 328L370 333L370 346Q370 401 345 425.50Q320 450 256 450Q193 450 168 425.50Q143 401 143 346L143 154Q143 99 171 74.50Q199 50 270 50Q314 50 354 59Q394 68 412 76L430 85Q436 74 436 57Q436 50 434.50 43Q433 36 432 33L430 30Q376-5 270-5Q159-5 109.50 35Q60 75 60 154M164 697L248 613L332 697Q347 702 360 702L387 697L286 577Q268 572 248 572L210 577L109 697Q121 702 136 702L164 697Z"  horiz-adv-x="497" vert-adv-y="1000"  />

      
      <glyph glyph-name="uni010E" unicode="&#x010E;" d="M62 695Q152 704 289 704Q417 704 475 662Q533 620 533 537L533 163Q533 80 475 38Q417-4 289-4Q228-4 171.50-2Q115 0 88 2L62 5L62 695M149 646L149 54L289 54Q374 54 410 80Q446 106 446 163L446 537Q446 594 410 620Q374 646 289 646L149 646M206 873L290 788L375 873Q389 878 402 878L429 873L328 753Q310 748 291 748L253 753L151 873Q163 878 178 878L206 873Z"  horiz-adv-x="593" vert-adv-y="1000"  />

      
      <glyph glyph-name="uni010F" unicode="&#x010F;" d="M373 3L373 43Q366 38 353.50 30Q341 22 298 8.50Q255-5 207-5Q129-5 94.50 35Q60 75 60 154L60 346Q60 425 100.50 465Q141 505 232 505Q264 505 290 500Q316 495 331 488.50Q346 482 356 475Q366 468 370 463L373 458L373 697Q393 702 414 702L456 697L456 3Q436-2 414-2L373 3M143 346L143 154Q143 99 163 74.50Q183 50 234 50Q279 50 313.50 62Q348 74 360 86L373 99L373 346Q373 401 344.50 425.50Q316 450 246 450Q189 450 166 425.50Q143 401 143 346M635 697Q635 656 628 620Q621 584 611.50 562Q602 540 592 523.50Q582 507 575 500L568 494Q557 489 546 489L525 494Q530 501 537 515.50Q544 530 556 582.50Q568 635 568 697Q584 702 602 702L635 697Z"  horiz-adv-x="631" vert-adv-y="1000"  />

      
      <glyph glyph-name="uni0110" unicode="&#x0110;" d="M95 695Q185 704 322 704Q450 704 507.50 662Q565 620 565 537L565 163Q565 80 507.50 38Q450-4 322-4Q261-4 204.50-2Q148 0 122 2L95 5L95 332L43 332Q38 343 38 360L43 388L95 388L95 695M337 332L181 332L181 54L322 54Q407 54 443 80Q479 106 479 163L479 537Q479 594 443 620Q407 646 322 646L181 646L181 388L337 388Q341 377 341 360L337 332Z"  horiz-adv-x="626" vert-adv-y="1000"  />

      
      <glyph glyph-name="uni0111" unicode="&#x0111;" d="M508 582L456 582L456 3Q436-2 414-2L373 3L373 43Q366 38 353.50 30Q341 22 298 8.50Q255-5 207-5Q129-5 94.50 35Q60 75 60 154L60 346Q60 425 100.50 465Q141 505 232 505Q279 505 314 493.50Q349 482 359 473Q369 464 373 458L373 582L197 582Q192 592 192 608L197 634L373 634L373 697Q393 702 414 702L456 697L456 634L508 634Q512 623 512 608L508 582M143 346L143 154Q143 99 163 74.50Q183 50 234 50Q279 50 313.50 62Q348 74 360 86L373 99L373 346Q373 401 344.50 425.50Q316 450 246 450Q189 450 166 425.50Q143 401 143 346Z"  horiz-adv-x="551" vert-adv-y="1000"  />

      
      <glyph glyph-name="uni0112" unicode="&#x0112;" d="M149 330L149 59L479 59Q484 47 484 29L479 0L263 0Q209 0 159 2Q109 4 86 6L62 7L62 693Q142 700 263 700L474 700Q479 688 479 670L474 641L149 641L149 389L441 389Q446 378 446 360L441 330L149 330M396 773L151 773Q146 781 146 795L151 816L396 816Q401 808 401 795L396 773Z"  horiz-adv-x="521" vert-adv-y="1000"  />

      
      <glyph glyph-name="uni0113" unicode="&#x0113;" d="M60 154L60 346Q60 425 107 465Q154 505 261 505Q369 505 413.50 465.50Q458 426 458 346L458 232Q399 224 300 224L143 224L143 154Q143 99 172 74.50Q201 50 275 50Q322 50 364 59Q406 68 424 76L443 85Q449 74 449 57Q449 50 447.50 43Q446 36 444 33L443 30Q386-5 275-5Q161-5 110.50 35Q60 75 60 154M143 279L379 279L379 346Q379 401 353 425.50Q327 450 261 450Q195 450 169 425.50Q143 401 143 346L143 279M382 601L136 601Q132 610 132 623L136 645L382 645Q386 636 386 623L382 601Z"  horiz-adv-x="518" vert-adv-y="1000"  />

      
      <glyph glyph-name="uni0114" unicode="&#x0114;" d="M149 330L149 59L479 59Q484 47 484 29L479 0L263 0Q209 0 159 2Q109 4 86 6L62 7L62 693Q142 700 263 700L474 700Q479 688 479 670L474 641L149 641L149 389L441 389Q446 378 446 360L441 330L149 330M367 773.50Q367 773.50 352.50 760.75Q338 748 265 748Q192 748 162.50 773.50Q133 799 133 852L133 862Q147 867 161 867L190 862L190 851Q190 818 206.50 803.50Q223 789 265 789Q306 789 322.50 803.50Q339 818 339 851L339 862Q353 867 367 867L396 862L396 852Q396 799 367 773.50Z"  horiz-adv-x="521" vert-adv-y="1000"  />

      
      <glyph glyph-name="uni0115" unicode="&#x0115;" d="M60 154L60 346Q60 425 107 465Q154 505 261 505Q369 505 413.50 465.50Q458 426 458 346L458 232Q399 224 300 224L143 224L143 154Q143 99 172 74.50Q201 50 275 50Q322 50 364 59Q406 68 424 76L443 85Q449 74 449 57Q449 50 447.50 43Q446 36 444 33L443 30Q386-5 275-5Q161-5 110.50 35Q60 75 60 154M143 279L379 279L379 346Q379 401 353 425.50Q327 450 261 450Q195 450 169 425.50Q143 401 143 346L143 279M361.50 608.50Q361.50 608.50 346.75 595.75Q332 583 259 583Q186 583 157 608.50Q128 634 128 687L128 697Q141 702 156 702L185 697L185 686Q185 653 201 638.50Q217 624 259 624Q300 624 317 638.50Q334 653 334 686L334 697Q347 702 362 702L391 697L391 687Q391 634 361.50 608.50Z"  horiz-adv-x="518" vert-adv-y="1000"  />

      
      <glyph glyph-name="uni0116" unicode="&#x0116;" d="M149 330L149 59L479 59Q484 47 484 29L479 0L263 0Q209 0 159 2Q109 4 86 6L62 7L62 693Q142 700 263 700L474 700Q479 688 479 670L474 641L149 641L149 389L441 389Q446 378 446 360L441 330L149 330M318 858L318 753Q297 748 277 748L236 753L236 858Q256 863 277 863L318 858Z"  horiz-adv-x="521" vert-adv-y="1000"  />

      
      <glyph glyph-name="uni0117" unicode="&#x0117;" d="M60 154L60 346Q60 425 107 465Q154 505 261 505Q369 505 413.50 465.50Q458 426 458 346L458 232Q399 224 300 224L143 224L143 154Q143 99 172 74.50Q201 50 275 50Q322 50 364 59Q406 68 424 76L443 85Q449 74 449 57Q449 50 447.50 43Q446 36 444 33L443 30Q386-5 275-5Q161-5 110.50 35Q60 75 60 154M143 279L379 279L379 346Q379 401 353 425.50Q327 450 261 450Q195 450 169 425.50Q143 401 143 346L143 279M300 697L300 592Q280 587 259 587L218 592L218 697Q238 702 259 702L300 697Z"  horiz-adv-x="518" vert-adv-y="1000"  />

      
      <glyph glyph-name="uni0118" unicode="&#x0118;" d="M334-87Q334-41 382 0L263 0Q209 0 159 2Q109 4 86 6L62 7L62 693Q142 700 263 700L474 700Q479 688 479 670L474 641L149 641L149 389L441 389Q446 378 446 360L441 330L149 330L149 59L479 59Q484 47 484 29L479 0L422 0Q383-43 383-82Q383-123 427-123Q441-123 454-119.50Q467-116 474-112L480-108Q484-115 484-126L480-143Q459-162 416-162Q334-162 334-87Z"  horiz-adv-x="521" vert-adv-y="1000"  />

      
      <glyph glyph-name="uni0119" unicode="&#x0119;" d="M272-87Q272-47 316-3Q290-5 275-5Q161-5 110.50 35Q60 75 60 154L60 346Q60 425 107 465Q154 505 261 505Q369 505 413.50 465.50Q458 426 458 346L458 232Q399 224 300 224L143 224L143 154Q143 99 172 74.50Q201 50 275 50Q322 50 364 59Q406 68 424 76L443 85Q449 74 449 57Q449 50 447.50 43Q446 36 444 33L443 30Q415 13 363 3Q358-2 350-12Q342-22 331.50-43.50Q321-65 321-82Q321-123 365-123Q379-123 392-119.50Q405-116 412-112L418-108Q422-115 422-126L418-143Q397-162 354-162Q272-162 272-87M143 279L379 279L379 346Q379 401 353 425.50Q327 450 261 450Q195 450 169 425.50Q143 401 143 346L143 279Z"  horiz-adv-x="518" vert-adv-y="1000"  />

      
      <glyph glyph-name="uni011A" unicode="&#x011A;" d="M149 330L149 59L479 59Q484 47 484 29L479 0L263 0Q209 0 159 2Q109 4 86 6L62 7L62 693Q142 700 263 700L474 700Q479 688 479 670L474 641L149 641L149 389L441 389Q446 378 446 360L441 330L149 330M189 873L274 788L358 873Q373 878 386 878L413 873L311 753Q294 748 274 748L236 753L134 873Q147 878 162 878L189 873Z"  horiz-adv-x="521" vert-adv-y="1000"  />

      
      <glyph glyph-name="uni011B" unicode="&#x011B;" d="M60 154L60 346Q60 425 107 465Q154 505 261 505Q369 505 413.50 465.50Q458 426 458 346L458 232Q399 224 300 224L143 224L143 154Q143 99 172 74.50Q201 50 275 50Q322 50 364 59Q406 68 424 76L443 85Q449 74 449 57Q449 50 447.50 43Q446 36 444 33L443 30Q386-5 275-5Q161-5 110.50 35Q60 75 60 154M143 279L379 279L379 346Q379 401 353 425.50Q327 450 261 450Q195 450 169 425.50Q143 401 143 346L143 279M175 697L259 613L344 697Q358 702 371 702L398 697L297 577Q279 572 260 572L222 577L120 697Q132 702 147 702L175 697Z"  horiz-adv-x="518" vert-adv-y="1000"  />

      
      <glyph glyph-name="uni011C" unicode="&#x011C;" d="M533 362L533 40Q523 35 503.50 27.50Q484 20 423 8Q362-4 300-4Q174-4 117 38Q60 80 60 163L60 537Q60 620 116.50 662.50Q173 705 300 705Q427 705 480 663Q533 621 533 537L533 523Q514 518 494 518L454 523L454 537Q454 594 419.50 620Q385 646 300 646Q215 646 181 620Q147 594 147 537L147 163Q147 106 182 80Q217 54 300 54Q342 54 379.50 61Q417 68 434 74L450 81L450 310L312 310Q307 322 307 340L312 369L357 369Q404 369 448 367.50Q492 366 512 364L533 362M382 753L297 837L213 753Q198 748 185 748L158 753L260 873Q277 878 297 878L335 873L437 753Q424 748 409 748L382 753Z"  horiz-adv-x="595" vert-adv-y="1000"  />

      
      <glyph glyph-name="uni011D" unicode="&#x011D;" d="M373-46L373 40Q369 34 359 25.50Q349 17 314 6Q279-5 232-5Q141-5 100.50 35Q60 75 60 154L60 346Q60 425 94.50 465Q129 505 207 505Q255 505 296.50 493Q338 481 356 469L373 457L373 497Q392 502 414 502L456 497L456-46Q456-125 405.50-165Q355-205 241-205Q197-205 157-199.50Q117-194 99-188L81-182Q76-170 76-154L81-126Q145-150 241-150Q315-150 344-125.50Q373-101 373-46M143 346L143 154Q143 99 166 74.50Q189 50 246 50Q316 50 344.50 74.50Q373 99 373 154L373 401Q369 406 360 414.50Q351 423 315 436.50Q279 450 234 450Q183 450 163 425.50Q143 401 143 346M343 577L259 662L174 577Q160 572 147 572L120 577L221 697Q239 702 258 702L296 697L398 577Q386 572 371 572L343 577Z"  horiz-adv-x="518" vert-adv-y="1000"  />

      
      <glyph glyph-name="uni011E" unicode="&#x011E;" d="M533 362L533 40Q523 35 503.50 27.50Q484 20 423 8Q362-4 300-4Q174-4 117 38Q60 80 60 163L60 537Q60 620 116.50 662.50Q173 705 300 705Q427 705 480 663Q533 621 533 537L533 523Q514 518 494 518L454 523L454 537Q454 594 419.50 620Q385 646 300 646Q215 646 181 620Q147 594 147 537L147 163Q147 106 182 80Q217 54 300 54Q342 54 379.50 61Q417 68 434 74L450 81L450 310L312 310Q307 322 307 340L312 369L357 369Q404 369 448 367.50Q492 366 512 364L533 362M399.50 773.50Q399.50 773.50 384.75 760.75Q370 748 297 748Q224 748 195 773.50Q166 799 166 852L166 862Q180 867 194 867L223 862L223 851Q223 818 239.50 803.50Q256 789 297 789Q338 789 355 803.50Q372 818 372 851L372 862Q385 867 400 867L429 862L429 852Q429 799 399.50 773.50Z"  horiz-adv-x="595" vert-adv-y="1000"  />

      
      <glyph glyph-name="uni011F" unicode="&#x011F;" d="M373-46L373 40Q369 34 359 25.50Q349 17 314 6Q279-5 232-5Q141-5 100.50 35Q60 75 60 154L60 346Q60 425 94.50 465Q129 505 207 505Q255 505 296.50 493Q338 481 356 469L373 457L373 497Q392 502 414 502L456 497L456-46Q456-125 405.50-165Q355-205 241-205Q197-205 157-199.50Q117-194 99-188L81-182Q76-170 76-154L81-126Q145-150 241-150Q315-150 344-125.50Q373-101 373-46M143 346L143 154Q143 99 166 74.50Q189 50 246 50Q316 50 344.50 74.50Q373 99 373 154L373 401Q369 406 360 414.50Q351 423 315 436.50Q279 450 234 450Q183 450 163 425.50Q143 401 143 346M361 608.50Q361 608.50 346.50 595.75Q332 583 259 583Q186 583 156.50 608.50Q127 634 127 687L127 697Q141 702 156 702L184 697L184 686Q184 653 200.50 638.50Q217 624 259 624Q300 624 316.50 638.50Q333 653 333 686L333 697Q347 702 362 702L390 697L390 687Q390 634 361 608.50Z"  horiz-adv-x="518" vert-adv-y="1000"  />

      
      <glyph glyph-name="uni0120" unicode="&#x0120;" d="M533 362L533 40Q523 35 503.50 27.50Q484 20 423 8Q362-4 300-4Q174-4 117 38Q60 80 60 163L60 537Q60 620 116.50 662.50Q173 705 300 705Q427 705 480 663Q533 621 533 537L533 523Q514 518 494 518L454 523L454 537Q454 594 419.50 620Q385 646 300 646Q215 646 181 620Q147 594 147 537L147 163Q147 106 182 80Q217 54 300 54Q342 54 379.50 61Q417 68 434 74L450 81L450 310L312 310Q307 322 307 340L312 369L357 369Q404 369 448 367.50Q492 366 512 364L533 362M339 858L339 753Q318 748 297 748L256 753L256 858Q276 863 297 863L339 858Z"  horiz-adv-x="595" vert-adv-y="1000"  />

      
      <glyph glyph-name="uni0121" unicode="&#x0121;" d="M373-46L373 40Q369 34 359 25.50Q349 17 314 6Q279-5 232-5Q141-5 100.50 35Q60 75 60 154L60 346Q60 425 94.50 465Q129 505 207 505Q255 505 296.50 493Q338 481 356 469L373 457L373 497Q392 502 414 502L456 497L456-46Q456-125 405.50-165Q355-205 241-205Q197-205 157-199.50Q117-194 99-188L81-182Q76-170 76-154L81-126Q145-150 241-150Q315-150 344-125.50Q373-101 373-46M143 346L143 154Q143 99 166 74.50Q189 50 246 50Q316 50 344.50 74.50Q373 99 373 154L373 401Q369 406 360 414.50Q351 423 315 436.50Q279 450 234 450Q183 450 163 425.50Q143 401 143 346M300 697L300 592Q279 587 259 587L218 592L218 697Q238 702 259 702L300 697Z"  horiz-adv-x="518" vert-adv-y="1000"  />

      
      </font>
</defs>
</svg>
