<?xml version="1.0" encoding="utf-8"?>
<svg version="1.1" id="wheelControl" xmlns="http://www.w3.org/2000/svg" xmlns:xlink="http://www.w3.org/1999/xlink" x="0px" y="0px"
	 viewBox="0 0 595.3 841.9" enable-background="new 0 0 595.3 841.9" xml:space="preserve">
<path fill="#da3e58" d="M116.7,201c6.8-5.6,13.8-10.9,21.1-15.9l-7.1-10.8c-7.7,5.1-15.1,10.8-22.3,16.7L116.7,201z"/>
<path fill="#30365d" d="M92.4,223.5c6.2-6.5,12.6-12.6,19.3-18.3l-8.2-9.8c-7.1,6.1-13.8,12.5-20.5,19.3L92.4,223.5z"/>
<path fill="#da3e58" d="M70.8,248.8c5.3-7,11.1-13.8,17.2-20.4l-9.4-8.8c-6.4,6.9-12.5,14.2-18.1,21.6L70.8,248.8z"/>
<path fill="#da3e58" d="M172,165.4c3.4-1.6,6.9-3.3,10.3-4.8c4.8-2.1,9.8-4.1,14.7-6l-4.4-12.1c-8.9,3.3-17.7,7.2-26.4,11.4
	L172,165.4z"/>
<path fill="#30365d" d="M52.5,276c4.4-7.5,9.3-15,14.5-22.1l-10.3-7.7c-5.5,7.6-10.6,15.3-15.2,23.3L52.5,276z"/>
<path fill="#30365d" d="M143.2,181.6c7.5-4.8,15.1-9.3,23-13.4l-5.8-11.6c-8.3,4.3-16.5,9-24.3,14.1L143.2,181.6z"/>
<path fill="#30365d" d="M203,152.3c8.4-3,16.9-5.5,25.5-7.6l-3-12.5c-9.1,2.2-18.1,4.9-27,8.1L203,152.3z"/>
<path fill="#30365d" d="M16.8,467.9c-1.5-8.9-2.5-17.9-3.1-26.8l-12.9,0.7c0.6,9.4,1.8,19,3.4,28.3L16.8,467.9z"/>
<path fill="#da3e58" d="M24.1,500.1c-1.6-5.3-2.9-10.7-4.1-16.1c-0.8-3.2-1.4-6.6-2.1-9.9l-12.6,2.2c1.7,9.2,3.9,18.3,6.5,27.4
	L24.1,500.1z"/>
<path fill="#30365d" d="M13.6,401.5c0.6-8.8,1.6-17.5,3-26.2l0,0l-12.7-2.2c-1.5,9.2-2.6,18.4-3.2,27.7L13.6,401.5z"/>
<path fill="#0a55f7" d="M17.7,368.9c1.6-8.7,3.7-17.4,6-25.9l-12.4-3.6c-2.5,9.1-4.8,18.2-6.4,27.5L17.7,368.9z"/>
<path fill="#30365d" d="M25.6,336.8c1.5-4.9,3.2-9.9,5-14.7c1.3-3.6,2.7-7.1,4.2-10.7L23,306.3c-3.6,8.8-6.9,17.7-9.7,26.8
	L25.6,336.8z"/>
<path fill="#0a55f7" d="M37.3,305.4c3.7-8.2,7.6-16.1,12-23.8l-11.2-6.4c-4.6,8.2-8.8,16.7-12.7,25.2L37.3,305.4z"/>
<path fill="#30365d" d="M463.7,173.8l-7.1,10.8c7.3,5,14.4,10.3,21.4,16l8.3-9.9C478.9,184.6,471.4,179,463.7,173.8z"/>
<path fill="#35c076" d="M288.8,136.3c1.7-0.1,3.4-0.1,5.1-0.2l-0.1-12.8c-9.3,0.1-18.8,0.7-28.1,1.6l1.5,12.8
	C274.3,137,281.5,136.5,288.8,136.3z"/>
<path fill="#da3e58" d="M13.2,434.6c-0.1-1.6-0.1-3.1-0.2-4.8c-0.2-7.3-0.1-14.7,0.2-22l-12.8-0.7C0,416.6,0,426,0.4,435.3
	L13.2,434.6z"/>
<path fill="#da3e58" d="M306.7,705.5c-1.7,0.1-3.4,0.1-5.1,0.2l0,12.8c9.3-0.1,18.8-0.7,28.1-1.6l-1.5-12.8
	C321,704.9,313.8,705.3,306.7,705.5z"/>
<path fill="#30365d" d="M102.8,628.5c-3.2-3-6.5-6.2-9.5-9.4l-9.4,8.9c3.3,3.4,6.6,6.6,10.1,9.9c3.4,3.2,6.7,6.2,10.2,9.1l8.3-9.9
	C109.2,634.4,105.9,631.5,102.8,628.5z"/>
<path fill="#30365d" d="M582.1,407.3c0.1,1.6,0.1,3.1,0.2,4.8c0.2,7.3,0.1,14.7-0.2,22l12.8,0.7c0.5-9.4,0.4-18.8,0-28.1
	L582.1,407.3z"/>
<path fill="#da3e58" d="M492.5,213.3c3.2,3,6.5,6.2,9.5,9.4l9.4-8.9c-3.3-3.4-6.6-6.6-10.1-9.9c-3.4-3.2-6.7-6.2-10.2-9.1l-8.3,9.9
	C486.2,207.5,489.4,210.4,492.5,213.3z"/>
<path fill="#30365d" d="M35,531.1c-3.4-8.2-6.4-16.4-9-24.8L13.5,510c2.8,8.8,6,17.5,9.5,26.2L35,531.1z"/>
<path fill="#30365d" d="M333.6,138.4c3.3,0.4,6.4,0.9,9.6,1.4c5.6,0.9,11.1,1.9,16.6,3.2l3-12.6c-9.2-2-18.4-3.7-27.8-4.8
	L333.6,138.4z"/>
<path fill="#da3e58" d="M366.2,144.5c8.5,2.1,17,4.6,25.3,7.5l4.4-12.1c-8.8-3.1-17.7-5.7-26.8-8L366.2,144.5z"/>
<path fill="#0a55f7" d="M300.3,136.2c9,0,17.9,0.6,27,1.5l1.4-12.8c-9.5-1-19-1.5-28.4-1.6L300.3,136.2z"/>
<path fill="#0a55f7" d="M234.9,143.2c8.5-1.9,17.3-3.5,25.9-4.6l-1.5-12.8c-9.2,1.2-18.4,2.9-27.4,4.9L234.9,143.2z"/>
<path fill="#da3e58" d="M427.9,167.5c8.1,4.1,15.8,8.6,23.4,13.5l7.1-10.8c-8.1-5.2-16.3-9.9-24.7-14.2L427.9,167.5z"/>
<path fill="#30365d" d="M397.6,154.1c8.4,3.1,16.5,6.7,24.6,10.5l5.7-11.5c-8.5-4.1-17.1-7.8-25.9-11.1L397.6,154.1z"/>
<path fill="#30365d" d="M524.6,593.1c-5.3,7-11.1,13.8-17.1,20.4l9.4,8.8c6.4-6.9,12.5-14.2,18.1-21.6L524.6,593.1z"/>
<path fill="#da3e58" d="M569.7,505c-1.5,4.9-3.2,9.9-5,14.7c-1.3,3.6-2.7,7.1-4.2,10.7l11.8,5.1c3.6-8.8,6.9-17.7,9.7-26.8
	L569.7,505z"/>
<path fill="#30365d" d="M558,536.4c-3.7,8.2-7.6,16.1-12,23.8l11.2,6.4c4.6-8.2,8.8-16.7,12.7-25.2L558,536.4z"/>
<path fill="#30365d" d="M577.6,472.9c-1.6,8.7-3.7,17.4-6,25.9l12.4,3.6c2.5-9.1,4.8-18.2,6.4-27.5L577.6,472.9z"/>
<path fill="#0a55f7" d="M502.6,618.6c-6.2,6.4-12.6,12.6-19.4,18.3l8.2,9.8c7.1-6.1,13.8-12.5,20.5-19.3L502.6,618.6z"/>
<path fill="#0a55f7" d="M542.9,565.9c-4.4,7.5-9.3,15-14.5,22.1l10.3,7.7c5.5-7.6,10.6-15.3,15.2-23.3L542.9,565.9z"/>
<path fill="#da3e58" d="M581.7,440.3c-0.6,8.8-1.6,17.5-3,26.2l0,0l12.7,2.2c1.5-9.2,2.6-18.4,3.1-27.7L581.7,440.3z"/>
<path fill="#da3e58" d="M578.5,374c1.5,8.9,2.5,17.9,3.1,26.8l12.9-0.7c-0.6-9.4-1.8-19-3.4-28.3L578.5,374z"/>
<path fill="#30365d" d="M478.3,641.1c-6.8,5.6-13.9,10.9-21.1,15.8l7.1,10.8c7.7-5.1,15.1-10.7,22.3-16.7L478.3,641.1z"/>
<path fill="#30365d" d="M506.6,227.4c6.1,6.5,11.8,13.3,17.3,20.3l10.3-7.7c-5.7-7.4-11.8-14.6-18.2-21.5L506.6,227.4z"/>
<path fill="#30365d" d="M545.7,281.1c4.4,7.7,8.3,15.7,11.9,23.9l11.8-5.2c-3.9-8.6-8-16.9-12.6-25.1L545.7,281.1z"/>
<path fill="#0a55f7" d="M527.7,253c5.3,7.2,10.2,14.8,14.8,22.6l11.1-6.4c-4.8-8.1-10.1-16.1-15.7-23.7L527.7,253z"/>
<path fill="#30365d" d="M571.2,341.8c1.6,5.3,2.9,10.7,4.1,16.1c0.8,3.2,1.4,6.6,2.1,9.9l12.6-2.2c-1.7-9.2-3.9-18.3-6.5-27.4
	L571.2,341.8z"/>
<path fill="#0a55f7" d="M560.4,310.8c3.4,8.2,6.4,16.4,9,24.8l12.4-3.8c-2.8-8.8-6-17.5-9.5-26.2L560.4,310.8z"/>
<path fill="#da3e58" d="M392.3,689.6c-8.4,3-16.9,5.5-25.5,7.6l3,12.5c9.1-2.2,18.1-4.9,27-8.1L392.3,689.6z"/>
<path fill="#30365d" d="M229.1,697.3c-8.5-2.1-17-4.6-25.2-7.5l-4.4,12.1c8.8,3.1,17.7,5.7,26.7,8L229.1,697.3z"/>
<path fill="#30365d" d="M167.5,674.3c-8.1-4.1-15.8-8.6-23.4-13.5l-7.1,10.8c8.1,5.2,16.3,9.9,24.7,14.2L167.5,674.3z"/>
<path fill="#da3e58" d="M197.8,687.6c-8.4-3.1-16.5-6.7-24.6-10.5l-5.7,11.5c8.5,4.1,17.1,7.8,25.9,11.1L197.8,687.6z"/>
<path fill="#0a55f7" d="M138.7,657.2c-7.3-5-14.4-10.3-21.4-16l-8.3,9.9c7.4,6,14.8,11.6,22.6,16.8L138.7,657.2z"/>
<path fill="#30365d" d="M67.6,588.9c-5.3-7.2-10.2-14.8-14.8-22.6l-11.2,6.4c4.8,8.1,10.1,16.1,15.7,23.7L67.6,588.9z"/>
<path fill="#0a55f7" d="M88.8,614.5c-6.1-6.5-11.8-13.3-17.3-20.3l-10.3,7.7c5.7,7.4,11.8,14.6,18.2,21.5L88.8,614.5z"/>
<path fill="#30365d" d="M295,705.7c-9,0-17.9-0.6-26.9-1.5l-1.4,12.8c9.5,1,19,1.5,28.4,1.6L295,705.7z"/>
<path fill="#da3e58" d="M261.7,703.5c-3.2-0.4-6.4-0.9-9.6-1.3c-5.6-0.9-11.1-1.9-16.6-3.2l-3,12.6c9.2,2.1,18.5,3.7,27.8,4.9
	L261.7,703.5z"/>
<path fill="#30365d" d="M423,676.8c-3.3,1.6-6.5,3.1-10,4.7c-4.8,2.1-9.8,4.1-14.7,6l4.4,12.1c8.8-3.3,17.5-7.1,26.1-11.3L423,676.8
	z"/>
<path fill="#da3e58" d="M49.6,560.8c-4.4-7.7-8.3-15.7-11.9-23.9l-11.8,5.2c3.9,8.6,8,16.9,12.6,25.1L49.6,560.8z"/>
<path fill="#da3e58" d="M451.8,660.4c-7.5,4.8-15.1,9.3-23.1,13.3l5.8,11.6c8.3-4.3,16.5-9,24.3-14.1L451.8,660.4z"/>
<path fill="#30365d" d="M360.5,698.7c-8.5,1.9-17.3,3.5-25.9,4.6l1.5,12.8c9.2-1.2,18.4-2.9,27.4-4.9L360.5,698.7z"/>
</svg>
